%TF.GenerationSoftware,KiCad,Pcbnew,7.0.5*%
%TF.CreationDate,2023-09-20T17:29:03-06:00*%
%TF.ProjectId,TrustTracer_Rv1.28,54727573-7454-4726-9163-65725f527631,REV_1.28*%
%TF.SameCoordinates,Original*%
%TF.FileFunction,Paste,Top*%
%TF.FilePolarity,Positive*%
%FSLAX46Y46*%
G04 Gerber Fmt 4.6, Leading zero omitted, Abs format (unit mm)*
G04 Created by KiCad (PCBNEW 7.0.5) date 2023-09-20 17:29:03*
%MOMM*%
%LPD*%
G01*
G04 APERTURE LIST*
G04 Aperture macros list*
%AMRoundRect*
0 Rectangle with rounded corners*
0 $1 Rounding radius*
0 $2 $3 $4 $5 $6 $7 $8 $9 X,Y pos of 4 corners*
0 Add a 4 corners polygon primitive as box body*
4,1,4,$2,$3,$4,$5,$6,$7,$8,$9,$2,$3,0*
0 Add four circle primitives for the rounded corners*
1,1,$1+$1,$2,$3*
1,1,$1+$1,$4,$5*
1,1,$1+$1,$6,$7*
1,1,$1+$1,$8,$9*
0 Add four rect primitives between the rounded corners*
20,1,$1+$1,$2,$3,$4,$5,0*
20,1,$1+$1,$4,$5,$6,$7,0*
20,1,$1+$1,$6,$7,$8,$9,0*
20,1,$1+$1,$8,$9,$2,$3,0*%
%AMRotRect*
0 Rectangle, with rotation*
0 The origin of the aperture is its center*
0 $1 length*
0 $2 width*
0 $3 Rotation angle, in degrees counterclockwise*
0 Add horizontal line*
21,1,$1,$2,0,0,$3*%
G04 Aperture macros list end*
%ADD10C,0.010000*%
%ADD11RoundRect,0.243750X0.456250X-0.243750X0.456250X0.243750X-0.456250X0.243750X-0.456250X-0.243750X0*%
%ADD12RoundRect,0.250000X-0.350000X-0.450000X0.350000X-0.450000X0.350000X0.450000X-0.350000X0.450000X0*%
%ADD13RoundRect,0.250000X0.475000X-0.337500X0.475000X0.337500X-0.475000X0.337500X-0.475000X-0.337500X0*%
%ADD14R,0.450000X1.475000*%
%ADD15RoundRect,0.250000X-0.475000X0.337500X-0.475000X-0.337500X0.475000X-0.337500X0.475000X0.337500X0*%
%ADD16R,2.000000X1.500000*%
%ADD17R,2.000000X3.800000*%
%ADD18RoundRect,0.250000X0.450000X-0.350000X0.450000X0.350000X-0.450000X0.350000X-0.450000X-0.350000X0*%
%ADD19RoundRect,0.250000X-0.450000X0.350000X-0.450000X-0.350000X0.450000X-0.350000X0.450000X0.350000X0*%
%ADD20RoundRect,0.250000X0.337500X0.475000X-0.337500X0.475000X-0.337500X-0.475000X0.337500X-0.475000X0*%
%ADD21R,1.200000X1.400000*%
%ADD22R,0.700000X1.200000*%
%ADD23R,1.000000X1.200000*%
%ADD24R,1.000000X0.800000*%
%ADD25R,1.000000X2.800000*%
%ADD26R,1.300000X1.900000*%
%ADD27R,1.700000X0.900000*%
%ADD28RoundRect,0.250000X-0.337500X-0.475000X0.337500X-0.475000X0.337500X0.475000X-0.337500X0.475000X0*%
%ADD29R,1.700000X0.700000*%
%ADD30RoundRect,0.250000X0.350000X0.450000X-0.350000X0.450000X-0.350000X-0.450000X0.350000X-0.450000X0*%
%ADD31RoundRect,0.250000X-0.250000X0.750000X-0.250000X-0.750000X0.250000X-0.750000X0.250000X0.750000X0*%
%ADD32RoundRect,0.250000X0.750000X0.250000X-0.750000X0.250000X-0.750000X-0.250000X0.750000X-0.250000X0*%
%ADD33RotRect,0.300000X1.475000X315.000000*%
%ADD34RotRect,0.300000X1.475000X225.000000*%
%ADD35R,1.800000X0.650000*%
%ADD36RoundRect,0.243750X0.243750X0.456250X-0.243750X0.456250X-0.243750X-0.456250X0.243750X-0.456250X0*%
%ADD37R,1.500000X2.000000*%
%ADD38R,3.800000X2.000000*%
%ADD39RoundRect,0.250000X-0.312500X-0.275000X0.312500X-0.275000X0.312500X0.275000X-0.312500X0.275000X0*%
%ADD40R,0.400000X1.100000*%
%ADD41R,0.700000X1.700000*%
G04 APERTURE END LIST*
%TO.C,U6*%
D10*
X97700000Y-76200000D02*
X96450000Y-76200000D01*
X96450000Y-75700000D01*
X97700000Y-75700000D01*
X97700000Y-76200000D01*
G36*
X97700000Y-76200000D02*
G01*
X96450000Y-76200000D01*
X96450000Y-75700000D01*
X97700000Y-75700000D01*
X97700000Y-76200000D01*
G37*
X97700000Y-76850000D02*
X96450000Y-76850000D01*
X96450000Y-76550000D01*
X97700000Y-76550000D01*
X97700000Y-76850000D01*
G36*
X97700000Y-76850000D02*
G01*
X96450000Y-76850000D01*
X96450000Y-76550000D01*
X97700000Y-76550000D01*
X97700000Y-76850000D01*
G37*
X97700000Y-77500000D02*
X96450000Y-77500000D01*
X96450000Y-77200000D01*
X97700000Y-77200000D01*
X97700000Y-77500000D01*
G36*
X97700000Y-77500000D02*
G01*
X96450000Y-77500000D01*
X96450000Y-77200000D01*
X97700000Y-77200000D01*
X97700000Y-77500000D01*
G37*
X97700000Y-78150000D02*
X96450000Y-78150000D01*
X96450000Y-77850000D01*
X97700000Y-77850000D01*
X97700000Y-78150000D01*
G36*
X97700000Y-78150000D02*
G01*
X96450000Y-78150000D01*
X96450000Y-77850000D01*
X97700000Y-77850000D01*
X97700000Y-78150000D01*
G37*
X97700000Y-78800000D02*
X96450000Y-78800000D01*
X96450000Y-78500000D01*
X97700000Y-78500000D01*
X97700000Y-78800000D01*
G36*
X97700000Y-78800000D02*
G01*
X96450000Y-78800000D01*
X96450000Y-78500000D01*
X97700000Y-78500000D01*
X97700000Y-78800000D01*
G37*
X97700000Y-79450000D02*
X96450000Y-79450000D01*
X96450000Y-79150000D01*
X97700000Y-79150000D01*
X97700000Y-79450000D01*
G36*
X97700000Y-79450000D02*
G01*
X96450000Y-79450000D01*
X96450000Y-79150000D01*
X97700000Y-79150000D01*
X97700000Y-79450000D01*
G37*
X97700000Y-80300000D02*
X96450000Y-80300000D01*
X96450000Y-79800000D01*
X97700000Y-79800000D01*
X97700000Y-80300000D01*
G36*
X97700000Y-80300000D02*
G01*
X96450000Y-80300000D01*
X96450000Y-79800000D01*
X97700000Y-79800000D01*
X97700000Y-80300000D01*
G37*
X103550000Y-76200000D02*
X102300000Y-76200000D01*
X102300000Y-75700000D01*
X103550000Y-75700000D01*
X103550000Y-76200000D01*
G36*
X103550000Y-76200000D02*
G01*
X102300000Y-76200000D01*
X102300000Y-75700000D01*
X103550000Y-75700000D01*
X103550000Y-76200000D01*
G37*
X103550000Y-76850000D02*
X102300000Y-76850000D01*
X102300000Y-76550000D01*
X103550000Y-76550000D01*
X103550000Y-76850000D01*
G36*
X103550000Y-76850000D02*
G01*
X102300000Y-76850000D01*
X102300000Y-76550000D01*
X103550000Y-76550000D01*
X103550000Y-76850000D01*
G37*
X103550000Y-77500000D02*
X102300000Y-77500000D01*
X102300000Y-77200000D01*
X103550000Y-77200000D01*
X103550000Y-77500000D01*
G36*
X103550000Y-77500000D02*
G01*
X102300000Y-77500000D01*
X102300000Y-77200000D01*
X103550000Y-77200000D01*
X103550000Y-77500000D01*
G37*
X103550000Y-78150000D02*
X102300000Y-78150000D01*
X102300000Y-77850000D01*
X103550000Y-77850000D01*
X103550000Y-78150000D01*
G36*
X103550000Y-78150000D02*
G01*
X102300000Y-78150000D01*
X102300000Y-77850000D01*
X103550000Y-77850000D01*
X103550000Y-78150000D01*
G37*
X103550000Y-78800000D02*
X102300000Y-78800000D01*
X102300000Y-78500000D01*
X103550000Y-78500000D01*
X103550000Y-78800000D01*
G36*
X103550000Y-78800000D02*
G01*
X102300000Y-78800000D01*
X102300000Y-78500000D01*
X103550000Y-78500000D01*
X103550000Y-78800000D01*
G37*
X103550000Y-79450000D02*
X102300000Y-79450000D01*
X102300000Y-79150000D01*
X103550000Y-79150000D01*
X103550000Y-79450000D01*
G36*
X103550000Y-79450000D02*
G01*
X102300000Y-79450000D01*
X102300000Y-79150000D01*
X103550000Y-79150000D01*
X103550000Y-79450000D01*
G37*
X103550000Y-80300000D02*
X102300000Y-80300000D01*
X102300000Y-79800000D01*
X103550000Y-79800000D01*
X103550000Y-80300000D01*
G36*
X103550000Y-80300000D02*
G01*
X102300000Y-80300000D01*
X102300000Y-79800000D01*
X103550000Y-79800000D01*
X103550000Y-80300000D01*
G37*
%TD*%
D11*
%TO.C,D3*%
X42000000Y-40875000D03*
X42000000Y-39000000D03*
%TD*%
D12*
%TO.C,R30*%
X109811001Y-59629042D03*
X111811001Y-59629042D03*
%TD*%
D13*
%TO.C,C15*%
X131000000Y-43047159D03*
X131000000Y-40972159D03*
%TD*%
D11*
%TO.C,BP-ON1*%
X39000000Y-83937500D03*
X39000000Y-82062500D03*
%TD*%
D14*
%TO.C,IC1*%
X122750000Y-33938000D03*
X123400000Y-33938000D03*
X124050000Y-33938000D03*
X124700000Y-33938000D03*
X125350000Y-33938000D03*
X126000000Y-33938000D03*
X126650000Y-33938000D03*
X127300000Y-33938000D03*
X127950000Y-33938000D03*
X128600000Y-33938000D03*
X129250000Y-33938000D03*
X129900000Y-33938000D03*
X130550000Y-33938000D03*
X131200000Y-33938000D03*
X131200000Y-28062000D03*
X130550000Y-28062000D03*
X129900000Y-28062000D03*
X129250000Y-28062000D03*
X128600000Y-28062000D03*
X127950000Y-28062000D03*
X127300000Y-28062000D03*
X126650000Y-28062000D03*
X126000000Y-28062000D03*
X125350000Y-28062000D03*
X124700000Y-28062000D03*
X124050000Y-28062000D03*
X123400000Y-28062000D03*
X122750000Y-28062000D03*
%TD*%
D13*
%TO.C,C6*%
X48000000Y-39037500D03*
X48000000Y-36962500D03*
%TD*%
%TO.C,C20*%
X96472389Y-62686396D03*
X96472389Y-60611396D03*
%TD*%
D15*
%TO.C,C24*%
X39000000Y-57962500D03*
X39000000Y-60037500D03*
%TD*%
D16*
%TO.C,U4*%
X46181496Y-52230884D03*
X46181496Y-54530884D03*
D17*
X52481496Y-54530884D03*
D16*
X46181496Y-56830884D03*
%TD*%
D12*
%TO.C,R16*%
X126934440Y-71153992D03*
X128934440Y-71153992D03*
%TD*%
D11*
%TO.C,D5*%
X149073208Y-81288318D03*
X149073208Y-79413318D03*
%TD*%
D13*
%TO.C,C4*%
X49191666Y-69066508D03*
X49191666Y-66991508D03*
%TD*%
D12*
%TO.C,R11*%
X100000000Y-68000000D03*
X102000000Y-68000000D03*
%TD*%
D18*
%TO.C,R7*%
X140053600Y-40055200D03*
X140053600Y-38055200D03*
%TD*%
D19*
%TO.C,R9*%
X96000000Y-71000000D03*
X96000000Y-73000000D03*
%TD*%
D20*
%TO.C,C7*%
X60062233Y-44612962D03*
X57987233Y-44612962D03*
%TD*%
D21*
%TO.C,Y1*%
X102221424Y-57157236D03*
X102221424Y-59357236D03*
X103821424Y-59357236D03*
X103821424Y-57157236D03*
%TD*%
D22*
%TO.C,J9*%
X118761228Y-68841683D03*
X117661228Y-68841683D03*
X116561228Y-68841683D03*
X115461228Y-68841683D03*
X114361228Y-68841683D03*
X113261228Y-68841683D03*
X112161228Y-68841683D03*
X111061228Y-68841683D03*
X110111228Y-68841683D03*
D23*
X120311228Y-68841683D03*
X109161228Y-73141683D03*
D24*
X109161228Y-79341683D03*
D25*
X109161228Y-83491683D03*
D26*
X122661228Y-83941683D03*
%TD*%
D27*
%TO.C,SW1*%
X65000000Y-75700000D03*
X65000000Y-72300000D03*
%TD*%
D11*
%TO.C,D2*%
X33000000Y-57937500D03*
X33000000Y-56062500D03*
%TD*%
D18*
%TO.C,RBT6*%
X76265800Y-75478360D03*
X76265800Y-73478360D03*
%TD*%
D12*
%TO.C,R4*%
X109982237Y-36796808D03*
X111982237Y-36796808D03*
%TD*%
D28*
%TO.C,C12*%
X126896940Y-68153992D03*
X128971940Y-68153992D03*
%TD*%
%TO.C,C16*%
X129355653Y-21641078D03*
X131430653Y-21641078D03*
%TD*%
%TO.C,C19*%
X122267928Y-37393153D03*
X124342928Y-37393153D03*
%TD*%
D15*
%TO.C,C10*%
X160397770Y-40101373D03*
X160397770Y-42176373D03*
%TD*%
D29*
%TO.C,U7*%
X69800000Y-60905000D03*
X69800000Y-59635000D03*
X69800000Y-58365000D03*
X69800000Y-57095000D03*
X64200000Y-57095000D03*
X64200000Y-58365000D03*
X64200000Y-59635000D03*
X64200000Y-60905000D03*
%TD*%
D19*
%TO.C,RLED3*%
X64000000Y-37000000D03*
X64000000Y-39000000D03*
%TD*%
D11*
%TO.C,D8*%
X53040590Y-84000000D03*
X53040590Y-82125000D03*
%TD*%
D18*
%TO.C,R26*%
X99168601Y-54451347D03*
X99168601Y-52451347D03*
%TD*%
D19*
%TO.C,R12*%
X105341916Y-69066004D03*
X105341916Y-71066004D03*
%TD*%
%TO.C,RLED4*%
X82000000Y-37000000D03*
X82000000Y-39000000D03*
%TD*%
D28*
%TO.C,C14*%
X125537487Y-45000000D03*
X127612487Y-45000000D03*
%TD*%
D18*
%TO.C,R5*%
X153838608Y-76548118D03*
X153838608Y-74548118D03*
%TD*%
D12*
%TO.C,R23*%
X109992699Y-43604547D03*
X111992699Y-43604547D03*
%TD*%
%TO.C,R29*%
X137934440Y-69153992D03*
X139934440Y-69153992D03*
%TD*%
D19*
%TO.C,R2*%
X53000000Y-31000000D03*
X53000000Y-33000000D03*
%TD*%
%TO.C,R14*%
X53040589Y-77196217D03*
X53040589Y-79196217D03*
%TD*%
D12*
%TO.C,R19*%
X110034402Y-41310517D03*
X112034402Y-41310517D03*
%TD*%
D16*
%TO.C,U2*%
X47850000Y-41700000D03*
X47850000Y-44000000D03*
X47850000Y-46300000D03*
D17*
X54150000Y-44000000D03*
%TD*%
D13*
%TO.C,C21*%
X79215158Y-50580616D03*
X79215158Y-48505616D03*
%TD*%
D12*
%TO.C,R25*%
X111173886Y-46457477D03*
X113173886Y-46457477D03*
%TD*%
D30*
%TO.C,R24*%
X126384416Y-23463047D03*
X124384416Y-23463047D03*
%TD*%
D18*
%TO.C,RBT2*%
X86322500Y-75478360D03*
X86322500Y-73478360D03*
%TD*%
D12*
%TO.C,R18*%
X110019354Y-39021716D03*
X112019354Y-39021716D03*
%TD*%
D31*
%TO.C,U3*%
X164400000Y-46500000D03*
X162400000Y-46500000D03*
X160400000Y-46500000D03*
X158400000Y-46500000D03*
X156400000Y-46500000D03*
X154400000Y-46500000D03*
X150410000Y-46500000D03*
X148410000Y-46500000D03*
X146410000Y-46500000D03*
X144410000Y-46500000D03*
X142410000Y-46500000D03*
X140410000Y-46500000D03*
X140400000Y-62520000D03*
X142400000Y-62520000D03*
X144400000Y-62520000D03*
X146400000Y-62520000D03*
X148400000Y-62520000D03*
X150400000Y-62520000D03*
X154400000Y-62520000D03*
X156400000Y-62520000D03*
X158400000Y-62520000D03*
X160400000Y-62520000D03*
X162400000Y-62520000D03*
D32*
X139600000Y-51500000D03*
X139600000Y-53500000D03*
X139600000Y-55500000D03*
X139600000Y-57500000D03*
%TD*%
D19*
%TO.C,R27*%
X126195256Y-62040556D03*
X126195256Y-64040556D03*
%TD*%
D33*
%TO.C,IC3*%
X94709029Y-54594272D03*
X94355476Y-54240718D03*
X94001922Y-53887165D03*
X93648369Y-53533612D03*
X93294816Y-53180058D03*
X92941262Y-52826505D03*
X92587709Y-52472951D03*
X92234155Y-52119398D03*
X91880602Y-51765845D03*
X91527049Y-51412291D03*
X91173495Y-51058738D03*
X90819942Y-50705184D03*
X90466388Y-50351631D03*
X90112835Y-49998078D03*
X89759282Y-49644524D03*
X89405728Y-49290971D03*
D34*
X86594272Y-49290971D03*
X86240718Y-49644524D03*
X85887165Y-49998078D03*
X85533612Y-50351631D03*
X85180058Y-50705184D03*
X84826505Y-51058738D03*
X84472951Y-51412291D03*
X84119398Y-51765845D03*
X83765845Y-52119398D03*
X83412291Y-52472951D03*
X83058738Y-52826505D03*
X82705184Y-53180058D03*
X82351631Y-53533612D03*
X81998078Y-53887165D03*
X81644524Y-54240718D03*
X81290971Y-54594272D03*
D33*
X81290971Y-57405728D03*
X81644524Y-57759282D03*
X81998078Y-58112835D03*
X82351631Y-58466388D03*
X82705184Y-58819942D03*
X83058738Y-59173495D03*
X83412291Y-59527049D03*
X83765845Y-59880602D03*
X84119398Y-60234155D03*
X84472951Y-60587709D03*
X84826505Y-60941262D03*
X85180058Y-61294816D03*
X85533612Y-61648369D03*
X85887165Y-62001922D03*
X86240718Y-62355476D03*
X86594272Y-62709029D03*
D34*
X89405728Y-62709029D03*
X89759282Y-62355476D03*
X90112835Y-62001922D03*
X90466388Y-61648369D03*
X90819942Y-61294816D03*
X91173495Y-60941262D03*
X91527049Y-60587709D03*
X91880602Y-60234155D03*
X92234155Y-59880602D03*
X92587709Y-59527049D03*
X92941262Y-59173495D03*
X93294816Y-58819942D03*
X93648369Y-58466388D03*
X94001922Y-58112835D03*
X94355476Y-57759282D03*
X94709029Y-57405728D03*
%TD*%
D15*
%TO.C,C27*%
X57000000Y-59962500D03*
X57000000Y-62037500D03*
%TD*%
D11*
%TO.C,D7*%
X48364177Y-83892062D03*
X48364177Y-82017062D03*
%TD*%
D35*
%TO.C,IC2*%
X96000000Y-34840000D03*
X96000000Y-36110000D03*
X96000000Y-37380000D03*
X96000000Y-38650000D03*
X96000000Y-39920000D03*
X96000000Y-41190000D03*
X96000000Y-42460000D03*
X96000000Y-43730000D03*
X96000000Y-45000000D03*
X96000000Y-46270000D03*
X105450000Y-46270000D03*
X105450000Y-45000000D03*
X105450000Y-43730000D03*
X105450000Y-42460000D03*
X105450000Y-41190000D03*
X105450000Y-39920000D03*
X105450000Y-38650000D03*
X105450000Y-37380000D03*
X105450000Y-36110000D03*
X105450000Y-34840000D03*
%TD*%
D19*
%TO.C,R28*%
X129804743Y-62000000D03*
X129804743Y-64000000D03*
%TD*%
D13*
%TO.C,C3*%
X45928172Y-69067288D03*
X45928172Y-66992288D03*
%TD*%
D20*
%TO.C,C1*%
X34412792Y-61000000D03*
X32337792Y-61000000D03*
%TD*%
D15*
%TO.C,C5*%
X42758298Y-46276916D03*
X42758298Y-48351916D03*
%TD*%
D11*
%TO.C,IGNI1*%
X64134000Y-34880300D03*
X64134000Y-33005300D03*
%TD*%
D19*
%TO.C,R32*%
X67406699Y-33147350D03*
X67406699Y-35147350D03*
%TD*%
D11*
%TO.C,TV_ON1*%
X34287725Y-83937500D03*
X34287725Y-82062500D03*
%TD*%
%TO.C,BP-ON2*%
X43882226Y-83937500D03*
X43882226Y-82062500D03*
%TD*%
D19*
%TO.C,R13*%
X48376425Y-77187349D03*
X48376425Y-79187349D03*
%TD*%
D12*
%TO.C,R17*%
X137943356Y-71474852D03*
X139943356Y-71474852D03*
%TD*%
D36*
%TO.C,D11*%
X99523161Y-27982429D03*
X97648161Y-27982429D03*
%TD*%
D11*
%TO.C,D1*%
X39906176Y-53240818D03*
X39906176Y-51365818D03*
%TD*%
D12*
%TO.C,R20*%
X93000000Y-28000000D03*
X95000000Y-28000000D03*
%TD*%
D15*
%TO.C,C25*%
X42000000Y-58000000D03*
X42000000Y-60075000D03*
%TD*%
D37*
%TO.C,U1*%
X42300000Y-64850000D03*
X40000000Y-64850000D03*
D38*
X40000000Y-71150000D03*
D37*
X37700000Y-64850000D03*
%TD*%
D28*
%TO.C,C17*%
X129772500Y-23911202D03*
X131847500Y-23911202D03*
%TD*%
D39*
%TO.C,C9*%
X58150000Y-51000000D03*
X59925000Y-51000000D03*
%TD*%
D30*
%TO.C,R15*%
X68355600Y-64000000D03*
X66355600Y-64000000D03*
%TD*%
D13*
%TO.C,C18*%
X134135062Y-26099014D03*
X134135062Y-24024014D03*
%TD*%
D11*
%TO.C,D4*%
X153838608Y-81308118D03*
X153838608Y-79433118D03*
%TD*%
D40*
%TO.C,U5*%
X134909440Y-62003992D03*
X134259440Y-62003992D03*
X133609440Y-62003992D03*
X132959440Y-62003992D03*
X132959440Y-66303992D03*
X133609440Y-66303992D03*
X134259440Y-66303992D03*
X134909440Y-66303992D03*
%TD*%
D18*
%TO.C,RBT5*%
X78719900Y-75478360D03*
X78719900Y-73478360D03*
%TD*%
D12*
%TO.C,R1*%
X110059588Y-34528668D03*
X112059588Y-34528668D03*
%TD*%
D18*
%TO.C,RBT3*%
X83788300Y-75478360D03*
X83788300Y-73478360D03*
%TD*%
D36*
%TO.C,D12*%
X99531261Y-24640929D03*
X97656261Y-24640929D03*
%TD*%
D18*
%TO.C,RBT4*%
X81322500Y-75478360D03*
X81322500Y-73478360D03*
%TD*%
D28*
%TO.C,C13*%
X125449027Y-41301983D03*
X127524027Y-41301983D03*
%TD*%
D18*
%TO.C,RLED1*%
X34294636Y-79181350D03*
X34294636Y-77181350D03*
%TD*%
D11*
%TO.C,IGNI2*%
X82029400Y-35031900D03*
X82029400Y-33156900D03*
%TD*%
D19*
%TO.C,R31*%
X78573508Y-33019926D03*
X78573508Y-35019926D03*
%TD*%
%TO.C,RPD1*%
X67380599Y-37163750D03*
X67380599Y-39163750D03*
%TD*%
D13*
%TO.C,C22*%
X102467540Y-54453522D03*
X102467540Y-52378522D03*
%TD*%
D19*
%TO.C,RPD2*%
X78632208Y-37043026D03*
X78632208Y-39043026D03*
%TD*%
D18*
%TO.C,RBT7*%
X73776800Y-75478360D03*
X73776800Y-73478360D03*
%TD*%
D19*
%TO.C,R3*%
X53000000Y-36000000D03*
X53000000Y-38000000D03*
%TD*%
%TO.C,R10*%
X93000000Y-71000000D03*
X93000000Y-73000000D03*
%TD*%
D12*
%TO.C,R21*%
X93050105Y-24626259D03*
X95050105Y-24626259D03*
%TD*%
D18*
%TO.C,RLED5*%
X43904277Y-79203476D03*
X43904277Y-77203476D03*
%TD*%
D20*
%TO.C,C2*%
X34412792Y-64000000D03*
X32337792Y-64000000D03*
%TD*%
D41*
%TO.C,MOS1*%
X71095000Y-39124000D03*
X72365000Y-39124000D03*
X73635000Y-39124000D03*
X74905000Y-39124000D03*
X74905000Y-33524000D03*
X73635000Y-33524000D03*
X72365000Y-33524000D03*
X71095000Y-33524000D03*
%TD*%
D18*
%TO.C,RLED2*%
X39018464Y-79203476D03*
X39018464Y-77203476D03*
%TD*%
D15*
%TO.C,C26*%
X53000000Y-59962500D03*
X53000000Y-62037500D03*
%TD*%
D13*
%TO.C,C11*%
X63000000Y-66037500D03*
X63000000Y-63962500D03*
%TD*%
D20*
%TO.C,C8*%
X60037500Y-48000000D03*
X57962500Y-48000000D03*
%TD*%
%TO.C,C28*%
X68037500Y-70000000D03*
X65962500Y-70000000D03*
%TD*%
D15*
%TO.C,C23*%
X98749140Y-60672230D03*
X98749140Y-62747230D03*
%TD*%
D18*
%TO.C,R6*%
X149078608Y-76548118D03*
X149078608Y-74548118D03*
%TD*%
M02*
