M48
INCH
T1C0.0157
T2C0.0157
T3C0.0315
T4C0.0374
T5C0.0394
T6C0.0433
T7C0.0472
T8C0.0512
T9C0.0591
T10C0.0669
T11C0.0709
T12C0.0866
%
G90
G05
T1
X1.1417Y-2.9921
X1.2598Y-1.1417
X1.2992Y-1.4567
X1.3386Y-2.6378
X1.4173Y-3.0315
X1.6142Y-3.0315
X1.7717Y-1.6142
X1.7717Y-2.5197
X1.803Y-3.0395
X1.811Y-2.4016
X1.8504Y-1.2598
X2.0079Y-2.874
X2.0079Y-3.2283
X2.0152Y-2.7399
X2.0866Y-2.8307
X2.0866Y-2.9173
X2.126Y-2.5197
X2.1654Y-2.6323
X2.2047Y-1.6043
X2.3228Y-2.874
X2.3622Y-2.1654
X2.3622Y-2.6772
X2.4016Y-2.2835
X2.4016Y-2.3622
X2.5928Y-1.2514
X2.7165Y-1.4961
X2.7165Y-2.874
X2.7547Y-2.4791
X2.7559Y-1.8898
X2.8346Y-1.613
X2.8352Y-2.4821
X2.874Y-2.2835
X2.9048Y-2.3683
X3.0315Y-1.9291
X3.0601Y-2.452
X3.0709Y-1.6142
X3.0727Y-1.8522
X3.1102Y-2.5492
X3.1175Y-2.0939
X3.1397Y-2.2098
X3.1496Y-1.6535
X3.1702Y-1.2388
X3.172Y-2.4918
X3.1724Y-2.5401
X3.1818Y-2.2369
X3.1878Y-1.9685
X3.191Y-1.8826
X3.1923Y-2.0439
X3.2173Y-1.9355
X3.2301Y-1.8092
X3.2712Y-2.1912
X3.3072Y-2.4805
X3.3465Y-2.3228
X3.3605Y-1.8644
X3.3701Y-2.5209
X3.3778Y-1.7636
X3.3858Y-2.3228
X3.3999Y-1.825
X3.4111Y-2.5935
X3.4252Y-2.0472
X3.427Y-1.5748
X3.4428Y-2.564
X3.4646Y-1.7717
X3.4646Y-1.917
X3.4646Y-2.4016
X3.5039Y-1.7717
X3.5039Y-1.8898
X3.5394Y-1.4961
X3.5433Y-2.0866
X3.5827Y-2.9921
X3.5925Y-1.724
X3.6122Y-2.5062
X3.6122Y-2.5682
X3.622Y-1.5354
X3.622Y-1.6535
X3.6295Y-2.6036
X3.6614Y-1.7717
X3.6614Y-1.8898
X3.6996Y-2.7177
X3.7008Y-1.5354
X3.7008Y-2.4409
X3.7008Y-2.9528
X3.7368Y-2.3656
X3.7399Y-1.9784
X3.7402Y-3.1102
X3.7795Y-1.9902
X3.7795Y-2.2835
X3.8189Y-2.7165
X3.8583Y-1.4173
X3.8583Y-2.262
X3.8583Y-2.6378
X3.8976Y-2.7559
X3.8976Y-3.0709
X3.937Y-2.2441
X3.9764Y-3.0315
X3.9764Y-3.1102
X4.0183Y-2.8372
X4.0551Y-1.7717
X4.1264Y-2.6401
X4.1339Y-1.1417
X4.1339Y-3.1496
X4.1374Y-2.3973
X4.1847Y-2.2918
X4.2126Y-2.3622
X4.2126Y-2.7559
X4.2126Y-2.9528
X4.2508Y-2.4421
X4.252Y-1.2992
X4.2546Y-1.3412
X4.2913Y-2.6535
X4.4882Y-2.5295
X4.4882Y-2.6378
X4.5276Y-1.1417
X4.5346Y-2.6122
X4.5668Y-1.0497
X4.5669Y-1.7717
X4.5669Y-2.2047
X4.6314Y-2.786
X4.6457Y-1.5354
X4.7296Y-1.3386
X4.7312Y-1.3878
X4.7377Y-1.555
X4.8006Y-1.5722
X4.8031Y-0.9449
X4.8819Y-1.5354
X4.8819Y-1.6929
X4.9271Y-0.8603
X4.9974Y-2.9709
X5.0005Y-2.5797
X5.0225Y-0.8858
X5.055Y-1.4658
X5.0787Y-1.2598
X5.0787Y-1.6929
X5.0787Y-2.3622
X5.1019Y-1.5039
X5.1155Y-1.8085
X5.1297Y-1.5419
X5.1339Y-2.6825
X5.1448Y-2.3275
X5.1585Y-2.3644
X5.1714Y-1.5555
X5.1969Y-1.8504
X5.1969Y-1.9291
X5.2362Y-0.8268
X5.2661Y-2.7464
X5.2917Y-2.6716
X5.315Y-1.6142
X5.315Y-2.3622
X5.3822Y-2.8626
X5.4331Y-1.063
X5.5118Y-1.4173
X5.5512Y-2.9134
X5.6299Y-3.2283
X6.3163Y-1.5199
X6.378Y-2.5591
X6.392Y-1.7224
T2
X0.9193Y-0.9843
X0.9193Y-3.189
X0.9383Y-0.9383
X0.9383Y-1.0302
X0.9383Y-3.143
X0.9383Y-3.2349
X0.9843Y-0.9193
X0.9843Y-1.0492
X0.9843Y-3.124
X0.9843Y-3.2539
X1.0302Y-0.9383
X1.0302Y-1.0302
X1.0302Y-3.143
X1.0302Y-3.2349
X1.0492Y-0.9843
X1.0492Y-3.189
X6.313Y-0.9843
X6.313Y-3.189
X6.332Y-0.9383
X6.332Y-1.0302
X6.332Y-3.143
X6.332Y-3.2349
X6.378Y-0.9193
X6.378Y-1.0492
X6.378Y-3.124
X6.378Y-3.2539
X6.4239Y-0.9383
X6.4239Y-1.0302
X6.4239Y-3.143
X6.4239Y-3.2349
X6.4429Y-0.9843
X6.4429Y-3.189
T3
X5.5118Y-1.063
X5.5118Y-1.1417
X5.5118Y-1.2205
X5.5118Y-1.2992
X5.5906Y-1.063
X5.5906Y-1.1417
X5.5906Y-1.2205
X5.5906Y-1.2992
T4
X2.8051Y-3.0984
X2.9035Y-3.0984
X3.002Y-3.0984
X3.1004Y-3.0984
X3.1988Y-3.0984
X3.2972Y-3.0984
X3.3957Y-3.0984
X3.4941Y-3.0984
T5
X2.0047Y-0.9449
X2.1047Y-0.9449
X2.2047Y-0.9449
X2.3228Y-2.989
X2.3228Y-3.089
X2.3228Y-3.189
X2.3228Y-3.289
X2.6378Y-1.7795
X2.6378Y-1.8795
X2.6378Y-1.9795
X2.6378Y-2.0795
X3.5011Y-0.9872
X3.5011Y-1.0872
X4.3172Y-2.4625
X4.4172Y-2.4625
X4.5172Y-2.4625
X5.6299Y-1.4748
X5.6299Y-1.5748
X5.748Y-2.6953
X5.748Y-2.7953
T6
X4.3063Y-0.9449
X4.4063Y-0.9449
X4.5063Y-0.9449
X4.6063Y-0.9449
X4.7063Y-0.9449
T7
X0.9982Y-1.597
X0.9982Y-1.7348
X0.9983Y-1.3167
X0.9983Y-1.4544
X0.9983Y-1.8774
X0.9983Y-2.0152
X0.9986Y-2.158
X0.9986Y-2.2958
X1.3091Y-0.978
X1.4469Y-0.978
X1.5902Y-0.978
X1.728Y-0.978
X5.0814Y-3.0549
X5.2192Y-3.0549
X5.357Y-3.0549
X5.4948Y-3.0549
T8
X2.593Y-1.0827
X2.7899Y-1.0827
X2.9867Y-1.0827
X3.1836Y-1.0827
T9
X6.2205Y-1.278
T10
X6.1205Y-1.178
X6.1205Y-1.378
X6.3205Y-1.178
X6.3205Y-1.378
T11
X0.9653Y-2.629
X0.9653Y-2.8258
T12
X0.9843Y-0.9843
X0.9843Y-3.189
X6.378Y-0.9843
X6.378Y-3.189
T0
M30
