%TF.GenerationSoftware,KiCad,Pcbnew,7.0.5*%
%TF.CreationDate,2023-09-20T17:29:03-06:00*%
%TF.ProjectId,TrustTracer_Rv1.28,54727573-7454-4726-9163-65725f527631,REV_1.28*%
%TF.SameCoordinates,Original*%
%TF.FileFunction,Other,Comment*%
%FSLAX46Y46*%
G04 Gerber Fmt 4.6, Leading zero omitted, Abs format (unit mm)*
G04 Created by KiCad (PCBNEW 7.0.5) date 2023-09-20 17:29:03*
%MOMM*%
%LPD*%
G01*
G04 APERTURE LIST*
%ADD10C,0.150000*%
%ADD11C,0.100000*%
%ADD12C,0.300000*%
%ADD13C,0.200000*%
G04 APERTURE END LIST*
D10*
X180304819Y-57142856D02*
X180304819Y-57333332D01*
X180304819Y-57333332D02*
X180352438Y-57428570D01*
X180352438Y-57428570D02*
X180400057Y-57476189D01*
X180400057Y-57476189D02*
X180542914Y-57571427D01*
X180542914Y-57571427D02*
X180733390Y-57619046D01*
X180733390Y-57619046D02*
X181114342Y-57619046D01*
X181114342Y-57619046D02*
X181209580Y-57571427D01*
X181209580Y-57571427D02*
X181257200Y-57523808D01*
X181257200Y-57523808D02*
X181304819Y-57428570D01*
X181304819Y-57428570D02*
X181304819Y-57238094D01*
X181304819Y-57238094D02*
X181257200Y-57142856D01*
X181257200Y-57142856D02*
X181209580Y-57095237D01*
X181209580Y-57095237D02*
X181114342Y-57047618D01*
X181114342Y-57047618D02*
X180876247Y-57047618D01*
X180876247Y-57047618D02*
X180781009Y-57095237D01*
X180781009Y-57095237D02*
X180733390Y-57142856D01*
X180733390Y-57142856D02*
X180685771Y-57238094D01*
X180685771Y-57238094D02*
X180685771Y-57428570D01*
X180685771Y-57428570D02*
X180733390Y-57523808D01*
X180733390Y-57523808D02*
X180781009Y-57571427D01*
X180781009Y-57571427D02*
X180876247Y-57619046D01*
X180304819Y-56190475D02*
X180304819Y-56380951D01*
X180304819Y-56380951D02*
X180352438Y-56476189D01*
X180352438Y-56476189D02*
X180400057Y-56523808D01*
X180400057Y-56523808D02*
X180542914Y-56619046D01*
X180542914Y-56619046D02*
X180733390Y-56666665D01*
X180733390Y-56666665D02*
X181114342Y-56666665D01*
X181114342Y-56666665D02*
X181209580Y-56619046D01*
X181209580Y-56619046D02*
X181257200Y-56571427D01*
X181257200Y-56571427D02*
X181304819Y-56476189D01*
X181304819Y-56476189D02*
X181304819Y-56285713D01*
X181304819Y-56285713D02*
X181257200Y-56190475D01*
X181257200Y-56190475D02*
X181209580Y-56142856D01*
X181209580Y-56142856D02*
X181114342Y-56095237D01*
X181114342Y-56095237D02*
X180876247Y-56095237D01*
X180876247Y-56095237D02*
X180781009Y-56142856D01*
X180781009Y-56142856D02*
X180733390Y-56190475D01*
X180733390Y-56190475D02*
X180685771Y-56285713D01*
X180685771Y-56285713D02*
X180685771Y-56476189D01*
X180685771Y-56476189D02*
X180733390Y-56571427D01*
X180733390Y-56571427D02*
X180781009Y-56619046D01*
X180781009Y-56619046D02*
X180876247Y-56666665D01*
X181209580Y-55666665D02*
X181257200Y-55619046D01*
X181257200Y-55619046D02*
X181304819Y-55666665D01*
X181304819Y-55666665D02*
X181257200Y-55714284D01*
X181257200Y-55714284D02*
X181209580Y-55666665D01*
X181209580Y-55666665D02*
X181304819Y-55666665D01*
X180304819Y-54999999D02*
X180304819Y-54904761D01*
X180304819Y-54904761D02*
X180352438Y-54809523D01*
X180352438Y-54809523D02*
X180400057Y-54761904D01*
X180400057Y-54761904D02*
X180495295Y-54714285D01*
X180495295Y-54714285D02*
X180685771Y-54666666D01*
X180685771Y-54666666D02*
X180923866Y-54666666D01*
X180923866Y-54666666D02*
X181114342Y-54714285D01*
X181114342Y-54714285D02*
X181209580Y-54761904D01*
X181209580Y-54761904D02*
X181257200Y-54809523D01*
X181257200Y-54809523D02*
X181304819Y-54904761D01*
X181304819Y-54904761D02*
X181304819Y-54999999D01*
X181304819Y-54999999D02*
X181257200Y-55095237D01*
X181257200Y-55095237D02*
X181209580Y-55142856D01*
X181209580Y-55142856D02*
X181114342Y-55190475D01*
X181114342Y-55190475D02*
X180923866Y-55238094D01*
X180923866Y-55238094D02*
X180685771Y-55238094D01*
X180685771Y-55238094D02*
X180495295Y-55190475D01*
X180495295Y-55190475D02*
X180400057Y-55142856D01*
X180400057Y-55142856D02*
X180352438Y-55095237D01*
X180352438Y-55095237D02*
X180304819Y-54999999D01*
X180304819Y-54047618D02*
X180304819Y-53952380D01*
X180304819Y-53952380D02*
X180352438Y-53857142D01*
X180352438Y-53857142D02*
X180400057Y-53809523D01*
X180400057Y-53809523D02*
X180495295Y-53761904D01*
X180495295Y-53761904D02*
X180685771Y-53714285D01*
X180685771Y-53714285D02*
X180923866Y-53714285D01*
X180923866Y-53714285D02*
X181114342Y-53761904D01*
X181114342Y-53761904D02*
X181209580Y-53809523D01*
X181209580Y-53809523D02*
X181257200Y-53857142D01*
X181257200Y-53857142D02*
X181304819Y-53952380D01*
X181304819Y-53952380D02*
X181304819Y-54047618D01*
X181304819Y-54047618D02*
X181257200Y-54142856D01*
X181257200Y-54142856D02*
X181209580Y-54190475D01*
X181209580Y-54190475D02*
X181114342Y-54238094D01*
X181114342Y-54238094D02*
X180923866Y-54285713D01*
X180923866Y-54285713D02*
X180685771Y-54285713D01*
X180685771Y-54285713D02*
X180495295Y-54238094D01*
X180495295Y-54238094D02*
X180400057Y-54190475D01*
X180400057Y-54190475D02*
X180352438Y-54142856D01*
X180352438Y-54142856D02*
X180304819Y-54047618D01*
X180304819Y-53095237D02*
X180304819Y-52999999D01*
X180304819Y-52999999D02*
X180352438Y-52904761D01*
X180352438Y-52904761D02*
X180400057Y-52857142D01*
X180400057Y-52857142D02*
X180495295Y-52809523D01*
X180495295Y-52809523D02*
X180685771Y-52761904D01*
X180685771Y-52761904D02*
X180923866Y-52761904D01*
X180923866Y-52761904D02*
X181114342Y-52809523D01*
X181114342Y-52809523D02*
X181209580Y-52857142D01*
X181209580Y-52857142D02*
X181257200Y-52904761D01*
X181257200Y-52904761D02*
X181304819Y-52999999D01*
X181304819Y-52999999D02*
X181304819Y-53095237D01*
X181304819Y-53095237D02*
X181257200Y-53190475D01*
X181257200Y-53190475D02*
X181209580Y-53238094D01*
X181209580Y-53238094D02*
X181114342Y-53285713D01*
X181114342Y-53285713D02*
X180923866Y-53333332D01*
X180923866Y-53333332D02*
X180685771Y-53333332D01*
X180685771Y-53333332D02*
X180495295Y-53285713D01*
X180495295Y-53285713D02*
X180400057Y-53238094D01*
X180400057Y-53238094D02*
X180352438Y-53190475D01*
X180352438Y-53190475D02*
X180304819Y-53095237D01*
X180304819Y-52142856D02*
X180304819Y-52047618D01*
X180304819Y-52047618D02*
X180352438Y-51952380D01*
X180352438Y-51952380D02*
X180400057Y-51904761D01*
X180400057Y-51904761D02*
X180495295Y-51857142D01*
X180495295Y-51857142D02*
X180685771Y-51809523D01*
X180685771Y-51809523D02*
X180923866Y-51809523D01*
X180923866Y-51809523D02*
X181114342Y-51857142D01*
X181114342Y-51857142D02*
X181209580Y-51904761D01*
X181209580Y-51904761D02*
X181257200Y-51952380D01*
X181257200Y-51952380D02*
X181304819Y-52047618D01*
X181304819Y-52047618D02*
X181304819Y-52142856D01*
X181304819Y-52142856D02*
X181257200Y-52238094D01*
X181257200Y-52238094D02*
X181209580Y-52285713D01*
X181209580Y-52285713D02*
X181114342Y-52333332D01*
X181114342Y-52333332D02*
X180923866Y-52380951D01*
X180923866Y-52380951D02*
X180685771Y-52380951D01*
X180685771Y-52380951D02*
X180495295Y-52333332D01*
X180495295Y-52333332D02*
X180400057Y-52285713D01*
X180400057Y-52285713D02*
X180352438Y-52238094D01*
X180352438Y-52238094D02*
X180304819Y-52142856D01*
X181304819Y-50619046D02*
X180638152Y-50619046D01*
X180733390Y-50619046D02*
X180685771Y-50571427D01*
X180685771Y-50571427D02*
X180638152Y-50476189D01*
X180638152Y-50476189D02*
X180638152Y-50333332D01*
X180638152Y-50333332D02*
X180685771Y-50238094D01*
X180685771Y-50238094D02*
X180781009Y-50190475D01*
X180781009Y-50190475D02*
X181304819Y-50190475D01*
X180781009Y-50190475D02*
X180685771Y-50142856D01*
X180685771Y-50142856D02*
X180638152Y-50047618D01*
X180638152Y-50047618D02*
X180638152Y-49904761D01*
X180638152Y-49904761D02*
X180685771Y-49809522D01*
X180685771Y-49809522D02*
X180781009Y-49761903D01*
X180781009Y-49761903D02*
X181304819Y-49761903D01*
X181304819Y-49285713D02*
X180638152Y-49285713D01*
X180733390Y-49285713D02*
X180685771Y-49238094D01*
X180685771Y-49238094D02*
X180638152Y-49142856D01*
X180638152Y-49142856D02*
X180638152Y-48999999D01*
X180638152Y-48999999D02*
X180685771Y-48904761D01*
X180685771Y-48904761D02*
X180781009Y-48857142D01*
X180781009Y-48857142D02*
X181304819Y-48857142D01*
X180781009Y-48857142D02*
X180685771Y-48809523D01*
X180685771Y-48809523D02*
X180638152Y-48714285D01*
X180638152Y-48714285D02*
X180638152Y-48571428D01*
X180638152Y-48571428D02*
X180685771Y-48476189D01*
X180685771Y-48476189D02*
X180781009Y-48428570D01*
X180781009Y-48428570D02*
X181304819Y-48428570D01*
D11*
X164500000Y-20000000D02*
X182586420Y-20000000D01*
X164500000Y-86000000D02*
X182586420Y-86000000D01*
X182000000Y-20000000D02*
X182000000Y-86000000D01*
X182000000Y-20000000D02*
X182000000Y-86000000D01*
X182000000Y-20000000D02*
X182586421Y-21126504D01*
X182000000Y-20000000D02*
X181413579Y-21126504D01*
X182000000Y-86000000D02*
X181413579Y-84873496D01*
X182000000Y-86000000D02*
X182586421Y-84873496D01*
D10*
X88976190Y-92304819D02*
X88404762Y-92304819D01*
X88690476Y-92304819D02*
X88690476Y-91304819D01*
X88690476Y-91304819D02*
X88595238Y-91447676D01*
X88595238Y-91447676D02*
X88500000Y-91542914D01*
X88500000Y-91542914D02*
X88404762Y-91590533D01*
X89309524Y-91304819D02*
X89928571Y-91304819D01*
X89928571Y-91304819D02*
X89595238Y-91685771D01*
X89595238Y-91685771D02*
X89738095Y-91685771D01*
X89738095Y-91685771D02*
X89833333Y-91733390D01*
X89833333Y-91733390D02*
X89880952Y-91781009D01*
X89880952Y-91781009D02*
X89928571Y-91876247D01*
X89928571Y-91876247D02*
X89928571Y-92114342D01*
X89928571Y-92114342D02*
X89880952Y-92209580D01*
X89880952Y-92209580D02*
X89833333Y-92257200D01*
X89833333Y-92257200D02*
X89738095Y-92304819D01*
X89738095Y-92304819D02*
X89452381Y-92304819D01*
X89452381Y-92304819D02*
X89357143Y-92257200D01*
X89357143Y-92257200D02*
X89309524Y-92209580D01*
X90261905Y-91304819D02*
X90928571Y-91304819D01*
X90928571Y-91304819D02*
X90500000Y-92304819D01*
X91309524Y-92209580D02*
X91357143Y-92257200D01*
X91357143Y-92257200D02*
X91309524Y-92304819D01*
X91309524Y-92304819D02*
X91261905Y-92257200D01*
X91261905Y-92257200D02*
X91309524Y-92209580D01*
X91309524Y-92209580D02*
X91309524Y-92304819D01*
X91976190Y-91304819D02*
X92071428Y-91304819D01*
X92071428Y-91304819D02*
X92166666Y-91352438D01*
X92166666Y-91352438D02*
X92214285Y-91400057D01*
X92214285Y-91400057D02*
X92261904Y-91495295D01*
X92261904Y-91495295D02*
X92309523Y-91685771D01*
X92309523Y-91685771D02*
X92309523Y-91923866D01*
X92309523Y-91923866D02*
X92261904Y-92114342D01*
X92261904Y-92114342D02*
X92214285Y-92209580D01*
X92214285Y-92209580D02*
X92166666Y-92257200D01*
X92166666Y-92257200D02*
X92071428Y-92304819D01*
X92071428Y-92304819D02*
X91976190Y-92304819D01*
X91976190Y-92304819D02*
X91880952Y-92257200D01*
X91880952Y-92257200D02*
X91833333Y-92209580D01*
X91833333Y-92209580D02*
X91785714Y-92114342D01*
X91785714Y-92114342D02*
X91738095Y-91923866D01*
X91738095Y-91923866D02*
X91738095Y-91685771D01*
X91738095Y-91685771D02*
X91785714Y-91495295D01*
X91785714Y-91495295D02*
X91833333Y-91400057D01*
X91833333Y-91400057D02*
X91880952Y-91352438D01*
X91880952Y-91352438D02*
X91976190Y-91304819D01*
X92928571Y-91304819D02*
X93023809Y-91304819D01*
X93023809Y-91304819D02*
X93119047Y-91352438D01*
X93119047Y-91352438D02*
X93166666Y-91400057D01*
X93166666Y-91400057D02*
X93214285Y-91495295D01*
X93214285Y-91495295D02*
X93261904Y-91685771D01*
X93261904Y-91685771D02*
X93261904Y-91923866D01*
X93261904Y-91923866D02*
X93214285Y-92114342D01*
X93214285Y-92114342D02*
X93166666Y-92209580D01*
X93166666Y-92209580D02*
X93119047Y-92257200D01*
X93119047Y-92257200D02*
X93023809Y-92304819D01*
X93023809Y-92304819D02*
X92928571Y-92304819D01*
X92928571Y-92304819D02*
X92833333Y-92257200D01*
X92833333Y-92257200D02*
X92785714Y-92209580D01*
X92785714Y-92209580D02*
X92738095Y-92114342D01*
X92738095Y-92114342D02*
X92690476Y-91923866D01*
X92690476Y-91923866D02*
X92690476Y-91685771D01*
X92690476Y-91685771D02*
X92738095Y-91495295D01*
X92738095Y-91495295D02*
X92785714Y-91400057D01*
X92785714Y-91400057D02*
X92833333Y-91352438D01*
X92833333Y-91352438D02*
X92928571Y-91304819D01*
X93880952Y-91304819D02*
X93976190Y-91304819D01*
X93976190Y-91304819D02*
X94071428Y-91352438D01*
X94071428Y-91352438D02*
X94119047Y-91400057D01*
X94119047Y-91400057D02*
X94166666Y-91495295D01*
X94166666Y-91495295D02*
X94214285Y-91685771D01*
X94214285Y-91685771D02*
X94214285Y-91923866D01*
X94214285Y-91923866D02*
X94166666Y-92114342D01*
X94166666Y-92114342D02*
X94119047Y-92209580D01*
X94119047Y-92209580D02*
X94071428Y-92257200D01*
X94071428Y-92257200D02*
X93976190Y-92304819D01*
X93976190Y-92304819D02*
X93880952Y-92304819D01*
X93880952Y-92304819D02*
X93785714Y-92257200D01*
X93785714Y-92257200D02*
X93738095Y-92209580D01*
X93738095Y-92209580D02*
X93690476Y-92114342D01*
X93690476Y-92114342D02*
X93642857Y-91923866D01*
X93642857Y-91923866D02*
X93642857Y-91685771D01*
X93642857Y-91685771D02*
X93690476Y-91495295D01*
X93690476Y-91495295D02*
X93738095Y-91400057D01*
X93738095Y-91400057D02*
X93785714Y-91352438D01*
X93785714Y-91352438D02*
X93880952Y-91304819D01*
X94833333Y-91304819D02*
X94928571Y-91304819D01*
X94928571Y-91304819D02*
X95023809Y-91352438D01*
X95023809Y-91352438D02*
X95071428Y-91400057D01*
X95071428Y-91400057D02*
X95119047Y-91495295D01*
X95119047Y-91495295D02*
X95166666Y-91685771D01*
X95166666Y-91685771D02*
X95166666Y-91923866D01*
X95166666Y-91923866D02*
X95119047Y-92114342D01*
X95119047Y-92114342D02*
X95071428Y-92209580D01*
X95071428Y-92209580D02*
X95023809Y-92257200D01*
X95023809Y-92257200D02*
X94928571Y-92304819D01*
X94928571Y-92304819D02*
X94833333Y-92304819D01*
X94833333Y-92304819D02*
X94738095Y-92257200D01*
X94738095Y-92257200D02*
X94690476Y-92209580D01*
X94690476Y-92209580D02*
X94642857Y-92114342D01*
X94642857Y-92114342D02*
X94595238Y-91923866D01*
X94595238Y-91923866D02*
X94595238Y-91685771D01*
X94595238Y-91685771D02*
X94642857Y-91495295D01*
X94642857Y-91495295D02*
X94690476Y-91400057D01*
X94690476Y-91400057D02*
X94738095Y-91352438D01*
X94738095Y-91352438D02*
X94833333Y-91304819D01*
X96357143Y-92304819D02*
X96357143Y-91638152D01*
X96357143Y-91733390D02*
X96404762Y-91685771D01*
X96404762Y-91685771D02*
X96500000Y-91638152D01*
X96500000Y-91638152D02*
X96642857Y-91638152D01*
X96642857Y-91638152D02*
X96738095Y-91685771D01*
X96738095Y-91685771D02*
X96785714Y-91781009D01*
X96785714Y-91781009D02*
X96785714Y-92304819D01*
X96785714Y-91781009D02*
X96833333Y-91685771D01*
X96833333Y-91685771D02*
X96928571Y-91638152D01*
X96928571Y-91638152D02*
X97071428Y-91638152D01*
X97071428Y-91638152D02*
X97166667Y-91685771D01*
X97166667Y-91685771D02*
X97214286Y-91781009D01*
X97214286Y-91781009D02*
X97214286Y-92304819D01*
X97690476Y-92304819D02*
X97690476Y-91638152D01*
X97690476Y-91733390D02*
X97738095Y-91685771D01*
X97738095Y-91685771D02*
X97833333Y-91638152D01*
X97833333Y-91638152D02*
X97976190Y-91638152D01*
X97976190Y-91638152D02*
X98071428Y-91685771D01*
X98071428Y-91685771D02*
X98119047Y-91781009D01*
X98119047Y-91781009D02*
X98119047Y-92304819D01*
X98119047Y-91781009D02*
X98166666Y-91685771D01*
X98166666Y-91685771D02*
X98261904Y-91638152D01*
X98261904Y-91638152D02*
X98404761Y-91638152D01*
X98404761Y-91638152D02*
X98500000Y-91685771D01*
X98500000Y-91685771D02*
X98547619Y-91781009D01*
X98547619Y-91781009D02*
X98547619Y-92304819D01*
D11*
X162000000Y-81500000D02*
X162000000Y-93586420D01*
X25000000Y-81500000D02*
X25000000Y-93586420D01*
X162000000Y-93000000D02*
X25000000Y-93000000D01*
X162000000Y-93000000D02*
X25000000Y-93000000D01*
X162000000Y-93000000D02*
X160873496Y-93586421D01*
X162000000Y-93000000D02*
X160873496Y-92413579D01*
X25000000Y-93000000D02*
X26126504Y-92413579D01*
X25000000Y-93000000D02*
X26126504Y-93586421D01*
D10*
X16304819Y-87119047D02*
X16304819Y-87595237D01*
X16304819Y-87595237D02*
X16781009Y-87642856D01*
X16781009Y-87642856D02*
X16733390Y-87595237D01*
X16733390Y-87595237D02*
X16685771Y-87499999D01*
X16685771Y-87499999D02*
X16685771Y-87261904D01*
X16685771Y-87261904D02*
X16733390Y-87166666D01*
X16733390Y-87166666D02*
X16781009Y-87119047D01*
X16781009Y-87119047D02*
X16876247Y-87071428D01*
X16876247Y-87071428D02*
X17114342Y-87071428D01*
X17114342Y-87071428D02*
X17209580Y-87119047D01*
X17209580Y-87119047D02*
X17257200Y-87166666D01*
X17257200Y-87166666D02*
X17304819Y-87261904D01*
X17304819Y-87261904D02*
X17304819Y-87499999D01*
X17304819Y-87499999D02*
X17257200Y-87595237D01*
X17257200Y-87595237D02*
X17209580Y-87642856D01*
X17209580Y-86642856D02*
X17257200Y-86595237D01*
X17257200Y-86595237D02*
X17304819Y-86642856D01*
X17304819Y-86642856D02*
X17257200Y-86690475D01*
X17257200Y-86690475D02*
X17209580Y-86642856D01*
X17209580Y-86642856D02*
X17304819Y-86642856D01*
X16304819Y-85976190D02*
X16304819Y-85880952D01*
X16304819Y-85880952D02*
X16352438Y-85785714D01*
X16352438Y-85785714D02*
X16400057Y-85738095D01*
X16400057Y-85738095D02*
X16495295Y-85690476D01*
X16495295Y-85690476D02*
X16685771Y-85642857D01*
X16685771Y-85642857D02*
X16923866Y-85642857D01*
X16923866Y-85642857D02*
X17114342Y-85690476D01*
X17114342Y-85690476D02*
X17209580Y-85738095D01*
X17209580Y-85738095D02*
X17257200Y-85785714D01*
X17257200Y-85785714D02*
X17304819Y-85880952D01*
X17304819Y-85880952D02*
X17304819Y-85976190D01*
X17304819Y-85976190D02*
X17257200Y-86071428D01*
X17257200Y-86071428D02*
X17209580Y-86119047D01*
X17209580Y-86119047D02*
X17114342Y-86166666D01*
X17114342Y-86166666D02*
X16923866Y-86214285D01*
X16923866Y-86214285D02*
X16685771Y-86214285D01*
X16685771Y-86214285D02*
X16495295Y-86166666D01*
X16495295Y-86166666D02*
X16400057Y-86119047D01*
X16400057Y-86119047D02*
X16352438Y-86071428D01*
X16352438Y-86071428D02*
X16304819Y-85976190D01*
X16304819Y-85023809D02*
X16304819Y-84928571D01*
X16304819Y-84928571D02*
X16352438Y-84833333D01*
X16352438Y-84833333D02*
X16400057Y-84785714D01*
X16400057Y-84785714D02*
X16495295Y-84738095D01*
X16495295Y-84738095D02*
X16685771Y-84690476D01*
X16685771Y-84690476D02*
X16923866Y-84690476D01*
X16923866Y-84690476D02*
X17114342Y-84738095D01*
X17114342Y-84738095D02*
X17209580Y-84785714D01*
X17209580Y-84785714D02*
X17257200Y-84833333D01*
X17257200Y-84833333D02*
X17304819Y-84928571D01*
X17304819Y-84928571D02*
X17304819Y-85023809D01*
X17304819Y-85023809D02*
X17257200Y-85119047D01*
X17257200Y-85119047D02*
X17209580Y-85166666D01*
X17209580Y-85166666D02*
X17114342Y-85214285D01*
X17114342Y-85214285D02*
X16923866Y-85261904D01*
X16923866Y-85261904D02*
X16685771Y-85261904D01*
X16685771Y-85261904D02*
X16495295Y-85214285D01*
X16495295Y-85214285D02*
X16400057Y-85166666D01*
X16400057Y-85166666D02*
X16352438Y-85119047D01*
X16352438Y-85119047D02*
X16304819Y-85023809D01*
X16304819Y-84071428D02*
X16304819Y-83976190D01*
X16304819Y-83976190D02*
X16352438Y-83880952D01*
X16352438Y-83880952D02*
X16400057Y-83833333D01*
X16400057Y-83833333D02*
X16495295Y-83785714D01*
X16495295Y-83785714D02*
X16685771Y-83738095D01*
X16685771Y-83738095D02*
X16923866Y-83738095D01*
X16923866Y-83738095D02*
X17114342Y-83785714D01*
X17114342Y-83785714D02*
X17209580Y-83833333D01*
X17209580Y-83833333D02*
X17257200Y-83880952D01*
X17257200Y-83880952D02*
X17304819Y-83976190D01*
X17304819Y-83976190D02*
X17304819Y-84071428D01*
X17304819Y-84071428D02*
X17257200Y-84166666D01*
X17257200Y-84166666D02*
X17209580Y-84214285D01*
X17209580Y-84214285D02*
X17114342Y-84261904D01*
X17114342Y-84261904D02*
X16923866Y-84309523D01*
X16923866Y-84309523D02*
X16685771Y-84309523D01*
X16685771Y-84309523D02*
X16495295Y-84261904D01*
X16495295Y-84261904D02*
X16400057Y-84214285D01*
X16400057Y-84214285D02*
X16352438Y-84166666D01*
X16352438Y-84166666D02*
X16304819Y-84071428D01*
X16304819Y-83119047D02*
X16304819Y-83023809D01*
X16304819Y-83023809D02*
X16352438Y-82928571D01*
X16352438Y-82928571D02*
X16400057Y-82880952D01*
X16400057Y-82880952D02*
X16495295Y-82833333D01*
X16495295Y-82833333D02*
X16685771Y-82785714D01*
X16685771Y-82785714D02*
X16923866Y-82785714D01*
X16923866Y-82785714D02*
X17114342Y-82833333D01*
X17114342Y-82833333D02*
X17209580Y-82880952D01*
X17209580Y-82880952D02*
X17257200Y-82928571D01*
X17257200Y-82928571D02*
X17304819Y-83023809D01*
X17304819Y-83023809D02*
X17304819Y-83119047D01*
X17304819Y-83119047D02*
X17257200Y-83214285D01*
X17257200Y-83214285D02*
X17209580Y-83261904D01*
X17209580Y-83261904D02*
X17114342Y-83309523D01*
X17114342Y-83309523D02*
X16923866Y-83357142D01*
X16923866Y-83357142D02*
X16685771Y-83357142D01*
X16685771Y-83357142D02*
X16495295Y-83309523D01*
X16495295Y-83309523D02*
X16400057Y-83261904D01*
X16400057Y-83261904D02*
X16352438Y-83214285D01*
X16352438Y-83214285D02*
X16304819Y-83119047D01*
X17304819Y-81595237D02*
X16638152Y-81595237D01*
X16733390Y-81595237D02*
X16685771Y-81547618D01*
X16685771Y-81547618D02*
X16638152Y-81452380D01*
X16638152Y-81452380D02*
X16638152Y-81309523D01*
X16638152Y-81309523D02*
X16685771Y-81214285D01*
X16685771Y-81214285D02*
X16781009Y-81166666D01*
X16781009Y-81166666D02*
X17304819Y-81166666D01*
X16781009Y-81166666D02*
X16685771Y-81119047D01*
X16685771Y-81119047D02*
X16638152Y-81023809D01*
X16638152Y-81023809D02*
X16638152Y-80880952D01*
X16638152Y-80880952D02*
X16685771Y-80785713D01*
X16685771Y-80785713D02*
X16781009Y-80738094D01*
X16781009Y-80738094D02*
X17304819Y-80738094D01*
X17304819Y-80261904D02*
X16638152Y-80261904D01*
X16733390Y-80261904D02*
X16685771Y-80214285D01*
X16685771Y-80214285D02*
X16638152Y-80119047D01*
X16638152Y-80119047D02*
X16638152Y-79976190D01*
X16638152Y-79976190D02*
X16685771Y-79880952D01*
X16685771Y-79880952D02*
X16781009Y-79833333D01*
X16781009Y-79833333D02*
X17304819Y-79833333D01*
X16781009Y-79833333D02*
X16685771Y-79785714D01*
X16685771Y-79785714D02*
X16638152Y-79690476D01*
X16638152Y-79690476D02*
X16638152Y-79547619D01*
X16638152Y-79547619D02*
X16685771Y-79452380D01*
X16685771Y-79452380D02*
X16781009Y-79404761D01*
X16781009Y-79404761D02*
X17304819Y-79404761D01*
D11*
X24500000Y-81000000D02*
X17413580Y-81000000D01*
X24500000Y-86000000D02*
X17413580Y-86000000D01*
X18000000Y-81000000D02*
X18000000Y-86000000D01*
X18000000Y-81000000D02*
X18000000Y-86000000D01*
X18000000Y-81000000D02*
X18586421Y-82126504D01*
X18000000Y-81000000D02*
X17413579Y-82126504D01*
X18000000Y-86000000D02*
X17413579Y-84873496D01*
X18000000Y-86000000D02*
X18586421Y-84873496D01*
D10*
X169304819Y-87119047D02*
X169304819Y-87595237D01*
X169304819Y-87595237D02*
X169781009Y-87642856D01*
X169781009Y-87642856D02*
X169733390Y-87595237D01*
X169733390Y-87595237D02*
X169685771Y-87499999D01*
X169685771Y-87499999D02*
X169685771Y-87261904D01*
X169685771Y-87261904D02*
X169733390Y-87166666D01*
X169733390Y-87166666D02*
X169781009Y-87119047D01*
X169781009Y-87119047D02*
X169876247Y-87071428D01*
X169876247Y-87071428D02*
X170114342Y-87071428D01*
X170114342Y-87071428D02*
X170209580Y-87119047D01*
X170209580Y-87119047D02*
X170257200Y-87166666D01*
X170257200Y-87166666D02*
X170304819Y-87261904D01*
X170304819Y-87261904D02*
X170304819Y-87499999D01*
X170304819Y-87499999D02*
X170257200Y-87595237D01*
X170257200Y-87595237D02*
X170209580Y-87642856D01*
X170209580Y-86642856D02*
X170257200Y-86595237D01*
X170257200Y-86595237D02*
X170304819Y-86642856D01*
X170304819Y-86642856D02*
X170257200Y-86690475D01*
X170257200Y-86690475D02*
X170209580Y-86642856D01*
X170209580Y-86642856D02*
X170304819Y-86642856D01*
X169304819Y-85976190D02*
X169304819Y-85880952D01*
X169304819Y-85880952D02*
X169352438Y-85785714D01*
X169352438Y-85785714D02*
X169400057Y-85738095D01*
X169400057Y-85738095D02*
X169495295Y-85690476D01*
X169495295Y-85690476D02*
X169685771Y-85642857D01*
X169685771Y-85642857D02*
X169923866Y-85642857D01*
X169923866Y-85642857D02*
X170114342Y-85690476D01*
X170114342Y-85690476D02*
X170209580Y-85738095D01*
X170209580Y-85738095D02*
X170257200Y-85785714D01*
X170257200Y-85785714D02*
X170304819Y-85880952D01*
X170304819Y-85880952D02*
X170304819Y-85976190D01*
X170304819Y-85976190D02*
X170257200Y-86071428D01*
X170257200Y-86071428D02*
X170209580Y-86119047D01*
X170209580Y-86119047D02*
X170114342Y-86166666D01*
X170114342Y-86166666D02*
X169923866Y-86214285D01*
X169923866Y-86214285D02*
X169685771Y-86214285D01*
X169685771Y-86214285D02*
X169495295Y-86166666D01*
X169495295Y-86166666D02*
X169400057Y-86119047D01*
X169400057Y-86119047D02*
X169352438Y-86071428D01*
X169352438Y-86071428D02*
X169304819Y-85976190D01*
X169304819Y-85023809D02*
X169304819Y-84928571D01*
X169304819Y-84928571D02*
X169352438Y-84833333D01*
X169352438Y-84833333D02*
X169400057Y-84785714D01*
X169400057Y-84785714D02*
X169495295Y-84738095D01*
X169495295Y-84738095D02*
X169685771Y-84690476D01*
X169685771Y-84690476D02*
X169923866Y-84690476D01*
X169923866Y-84690476D02*
X170114342Y-84738095D01*
X170114342Y-84738095D02*
X170209580Y-84785714D01*
X170209580Y-84785714D02*
X170257200Y-84833333D01*
X170257200Y-84833333D02*
X170304819Y-84928571D01*
X170304819Y-84928571D02*
X170304819Y-85023809D01*
X170304819Y-85023809D02*
X170257200Y-85119047D01*
X170257200Y-85119047D02*
X170209580Y-85166666D01*
X170209580Y-85166666D02*
X170114342Y-85214285D01*
X170114342Y-85214285D02*
X169923866Y-85261904D01*
X169923866Y-85261904D02*
X169685771Y-85261904D01*
X169685771Y-85261904D02*
X169495295Y-85214285D01*
X169495295Y-85214285D02*
X169400057Y-85166666D01*
X169400057Y-85166666D02*
X169352438Y-85119047D01*
X169352438Y-85119047D02*
X169304819Y-85023809D01*
X169304819Y-84071428D02*
X169304819Y-83976190D01*
X169304819Y-83976190D02*
X169352438Y-83880952D01*
X169352438Y-83880952D02*
X169400057Y-83833333D01*
X169400057Y-83833333D02*
X169495295Y-83785714D01*
X169495295Y-83785714D02*
X169685771Y-83738095D01*
X169685771Y-83738095D02*
X169923866Y-83738095D01*
X169923866Y-83738095D02*
X170114342Y-83785714D01*
X170114342Y-83785714D02*
X170209580Y-83833333D01*
X170209580Y-83833333D02*
X170257200Y-83880952D01*
X170257200Y-83880952D02*
X170304819Y-83976190D01*
X170304819Y-83976190D02*
X170304819Y-84071428D01*
X170304819Y-84071428D02*
X170257200Y-84166666D01*
X170257200Y-84166666D02*
X170209580Y-84214285D01*
X170209580Y-84214285D02*
X170114342Y-84261904D01*
X170114342Y-84261904D02*
X169923866Y-84309523D01*
X169923866Y-84309523D02*
X169685771Y-84309523D01*
X169685771Y-84309523D02*
X169495295Y-84261904D01*
X169495295Y-84261904D02*
X169400057Y-84214285D01*
X169400057Y-84214285D02*
X169352438Y-84166666D01*
X169352438Y-84166666D02*
X169304819Y-84071428D01*
X169304819Y-83119047D02*
X169304819Y-83023809D01*
X169304819Y-83023809D02*
X169352438Y-82928571D01*
X169352438Y-82928571D02*
X169400057Y-82880952D01*
X169400057Y-82880952D02*
X169495295Y-82833333D01*
X169495295Y-82833333D02*
X169685771Y-82785714D01*
X169685771Y-82785714D02*
X169923866Y-82785714D01*
X169923866Y-82785714D02*
X170114342Y-82833333D01*
X170114342Y-82833333D02*
X170209580Y-82880952D01*
X170209580Y-82880952D02*
X170257200Y-82928571D01*
X170257200Y-82928571D02*
X170304819Y-83023809D01*
X170304819Y-83023809D02*
X170304819Y-83119047D01*
X170304819Y-83119047D02*
X170257200Y-83214285D01*
X170257200Y-83214285D02*
X170209580Y-83261904D01*
X170209580Y-83261904D02*
X170114342Y-83309523D01*
X170114342Y-83309523D02*
X169923866Y-83357142D01*
X169923866Y-83357142D02*
X169685771Y-83357142D01*
X169685771Y-83357142D02*
X169495295Y-83309523D01*
X169495295Y-83309523D02*
X169400057Y-83261904D01*
X169400057Y-83261904D02*
X169352438Y-83214285D01*
X169352438Y-83214285D02*
X169304819Y-83119047D01*
X170304819Y-81595237D02*
X169638152Y-81595237D01*
X169733390Y-81595237D02*
X169685771Y-81547618D01*
X169685771Y-81547618D02*
X169638152Y-81452380D01*
X169638152Y-81452380D02*
X169638152Y-81309523D01*
X169638152Y-81309523D02*
X169685771Y-81214285D01*
X169685771Y-81214285D02*
X169781009Y-81166666D01*
X169781009Y-81166666D02*
X170304819Y-81166666D01*
X169781009Y-81166666D02*
X169685771Y-81119047D01*
X169685771Y-81119047D02*
X169638152Y-81023809D01*
X169638152Y-81023809D02*
X169638152Y-80880952D01*
X169638152Y-80880952D02*
X169685771Y-80785713D01*
X169685771Y-80785713D02*
X169781009Y-80738094D01*
X169781009Y-80738094D02*
X170304819Y-80738094D01*
X170304819Y-80261904D02*
X169638152Y-80261904D01*
X169733390Y-80261904D02*
X169685771Y-80214285D01*
X169685771Y-80214285D02*
X169638152Y-80119047D01*
X169638152Y-80119047D02*
X169638152Y-79976190D01*
X169638152Y-79976190D02*
X169685771Y-79880952D01*
X169685771Y-79880952D02*
X169781009Y-79833333D01*
X169781009Y-79833333D02*
X170304819Y-79833333D01*
X169781009Y-79833333D02*
X169685771Y-79785714D01*
X169685771Y-79785714D02*
X169638152Y-79690476D01*
X169638152Y-79690476D02*
X169638152Y-79547619D01*
X169638152Y-79547619D02*
X169685771Y-79452380D01*
X169685771Y-79452380D02*
X169781009Y-79404761D01*
X169781009Y-79404761D02*
X170304819Y-79404761D01*
D11*
X162500000Y-81000000D02*
X171586420Y-81000000D01*
X162500000Y-86000000D02*
X171586420Y-86000000D01*
X171000000Y-81000000D02*
X171000000Y-86000000D01*
X171000000Y-81000000D02*
X171000000Y-86000000D01*
X171000000Y-81000000D02*
X171586421Y-82126504D01*
X171000000Y-81000000D02*
X170413579Y-82126504D01*
X171000000Y-86000000D02*
X170413579Y-84873496D01*
X171000000Y-86000000D02*
X171586421Y-84873496D01*
D12*
X86714287Y-100878328D02*
X85857144Y-100878328D01*
X86285715Y-100878328D02*
X86285715Y-99378328D01*
X86285715Y-99378328D02*
X86142858Y-99592614D01*
X86142858Y-99592614D02*
X86000001Y-99735471D01*
X86000001Y-99735471D02*
X85857144Y-99806900D01*
X88000001Y-99878328D02*
X88000001Y-100878328D01*
X87642858Y-99306900D02*
X87285715Y-100378328D01*
X87285715Y-100378328D02*
X88214286Y-100378328D01*
X88642857Y-99378328D02*
X89642857Y-99378328D01*
X89642857Y-99378328D02*
X89000000Y-100878328D01*
X90214285Y-100735471D02*
X90285714Y-100806900D01*
X90285714Y-100806900D02*
X90214285Y-100878328D01*
X90214285Y-100878328D02*
X90142857Y-100806900D01*
X90142857Y-100806900D02*
X90214285Y-100735471D01*
X90214285Y-100735471D02*
X90214285Y-100878328D01*
X91214286Y-99378328D02*
X91357143Y-99378328D01*
X91357143Y-99378328D02*
X91500000Y-99449757D01*
X91500000Y-99449757D02*
X91571429Y-99521185D01*
X91571429Y-99521185D02*
X91642857Y-99664042D01*
X91642857Y-99664042D02*
X91714286Y-99949757D01*
X91714286Y-99949757D02*
X91714286Y-100306900D01*
X91714286Y-100306900D02*
X91642857Y-100592614D01*
X91642857Y-100592614D02*
X91571429Y-100735471D01*
X91571429Y-100735471D02*
X91500000Y-100806900D01*
X91500000Y-100806900D02*
X91357143Y-100878328D01*
X91357143Y-100878328D02*
X91214286Y-100878328D01*
X91214286Y-100878328D02*
X91071429Y-100806900D01*
X91071429Y-100806900D02*
X91000000Y-100735471D01*
X91000000Y-100735471D02*
X90928571Y-100592614D01*
X90928571Y-100592614D02*
X90857143Y-100306900D01*
X90857143Y-100306900D02*
X90857143Y-99949757D01*
X90857143Y-99949757D02*
X90928571Y-99664042D01*
X90928571Y-99664042D02*
X91000000Y-99521185D01*
X91000000Y-99521185D02*
X91071429Y-99449757D01*
X91071429Y-99449757D02*
X91214286Y-99378328D01*
X92642857Y-99378328D02*
X92785714Y-99378328D01*
X92785714Y-99378328D02*
X92928571Y-99449757D01*
X92928571Y-99449757D02*
X93000000Y-99521185D01*
X93000000Y-99521185D02*
X93071428Y-99664042D01*
X93071428Y-99664042D02*
X93142857Y-99949757D01*
X93142857Y-99949757D02*
X93142857Y-100306900D01*
X93142857Y-100306900D02*
X93071428Y-100592614D01*
X93071428Y-100592614D02*
X93000000Y-100735471D01*
X93000000Y-100735471D02*
X92928571Y-100806900D01*
X92928571Y-100806900D02*
X92785714Y-100878328D01*
X92785714Y-100878328D02*
X92642857Y-100878328D01*
X92642857Y-100878328D02*
X92500000Y-100806900D01*
X92500000Y-100806900D02*
X92428571Y-100735471D01*
X92428571Y-100735471D02*
X92357142Y-100592614D01*
X92357142Y-100592614D02*
X92285714Y-100306900D01*
X92285714Y-100306900D02*
X92285714Y-99949757D01*
X92285714Y-99949757D02*
X92357142Y-99664042D01*
X92357142Y-99664042D02*
X92428571Y-99521185D01*
X92428571Y-99521185D02*
X92500000Y-99449757D01*
X92500000Y-99449757D02*
X92642857Y-99378328D01*
X94071428Y-99378328D02*
X94214285Y-99378328D01*
X94214285Y-99378328D02*
X94357142Y-99449757D01*
X94357142Y-99449757D02*
X94428571Y-99521185D01*
X94428571Y-99521185D02*
X94499999Y-99664042D01*
X94499999Y-99664042D02*
X94571428Y-99949757D01*
X94571428Y-99949757D02*
X94571428Y-100306900D01*
X94571428Y-100306900D02*
X94499999Y-100592614D01*
X94499999Y-100592614D02*
X94428571Y-100735471D01*
X94428571Y-100735471D02*
X94357142Y-100806900D01*
X94357142Y-100806900D02*
X94214285Y-100878328D01*
X94214285Y-100878328D02*
X94071428Y-100878328D01*
X94071428Y-100878328D02*
X93928571Y-100806900D01*
X93928571Y-100806900D02*
X93857142Y-100735471D01*
X93857142Y-100735471D02*
X93785713Y-100592614D01*
X93785713Y-100592614D02*
X93714285Y-100306900D01*
X93714285Y-100306900D02*
X93714285Y-99949757D01*
X93714285Y-99949757D02*
X93785713Y-99664042D01*
X93785713Y-99664042D02*
X93857142Y-99521185D01*
X93857142Y-99521185D02*
X93928571Y-99449757D01*
X93928571Y-99449757D02*
X94071428Y-99378328D01*
X95499999Y-99378328D02*
X95642856Y-99378328D01*
X95642856Y-99378328D02*
X95785713Y-99449757D01*
X95785713Y-99449757D02*
X95857142Y-99521185D01*
X95857142Y-99521185D02*
X95928570Y-99664042D01*
X95928570Y-99664042D02*
X95999999Y-99949757D01*
X95999999Y-99949757D02*
X95999999Y-100306900D01*
X95999999Y-100306900D02*
X95928570Y-100592614D01*
X95928570Y-100592614D02*
X95857142Y-100735471D01*
X95857142Y-100735471D02*
X95785713Y-100806900D01*
X95785713Y-100806900D02*
X95642856Y-100878328D01*
X95642856Y-100878328D02*
X95499999Y-100878328D01*
X95499999Y-100878328D02*
X95357142Y-100806900D01*
X95357142Y-100806900D02*
X95285713Y-100735471D01*
X95285713Y-100735471D02*
X95214284Y-100592614D01*
X95214284Y-100592614D02*
X95142856Y-100306900D01*
X95142856Y-100306900D02*
X95142856Y-99949757D01*
X95142856Y-99949757D02*
X95214284Y-99664042D01*
X95214284Y-99664042D02*
X95285713Y-99521185D01*
X95285713Y-99521185D02*
X95357142Y-99449757D01*
X95357142Y-99449757D02*
X95499999Y-99378328D01*
X97785712Y-100878328D02*
X97785712Y-99878328D01*
X97785712Y-100021185D02*
X97857141Y-99949757D01*
X97857141Y-99949757D02*
X97999998Y-99878328D01*
X97999998Y-99878328D02*
X98214284Y-99878328D01*
X98214284Y-99878328D02*
X98357141Y-99949757D01*
X98357141Y-99949757D02*
X98428570Y-100092614D01*
X98428570Y-100092614D02*
X98428570Y-100878328D01*
X98428570Y-100092614D02*
X98499998Y-99949757D01*
X98499998Y-99949757D02*
X98642855Y-99878328D01*
X98642855Y-99878328D02*
X98857141Y-99878328D01*
X98857141Y-99878328D02*
X98999998Y-99949757D01*
X98999998Y-99949757D02*
X99071427Y-100092614D01*
X99071427Y-100092614D02*
X99071427Y-100878328D01*
X99785712Y-100878328D02*
X99785712Y-99878328D01*
X99785712Y-100021185D02*
X99857141Y-99949757D01*
X99857141Y-99949757D02*
X99999998Y-99878328D01*
X99999998Y-99878328D02*
X100214284Y-99878328D01*
X100214284Y-99878328D02*
X100357141Y-99949757D01*
X100357141Y-99949757D02*
X100428570Y-100092614D01*
X100428570Y-100092614D02*
X100428570Y-100878328D01*
X100428570Y-100092614D02*
X100499998Y-99949757D01*
X100499998Y-99949757D02*
X100642855Y-99878328D01*
X100642855Y-99878328D02*
X100857141Y-99878328D01*
X100857141Y-99878328D02*
X100999998Y-99949757D01*
X100999998Y-99949757D02*
X101071427Y-100092614D01*
X101071427Y-100092614D02*
X101071427Y-100878328D01*
D13*
X167000000Y-83500000D02*
X167000000Y-102586420D01*
X20000000Y-83500000D02*
X20000000Y-102586420D01*
X167000000Y-102000000D02*
X20000000Y-102000000D01*
X167000000Y-102000000D02*
X20000000Y-102000000D01*
X167000000Y-102000000D02*
X165873496Y-102586421D01*
X167000000Y-102000000D02*
X165873496Y-101413579D01*
X20000000Y-102000000D02*
X21126504Y-101413579D01*
X20000000Y-102000000D02*
X21126504Y-102586421D01*
D10*
X176304819Y-57142856D02*
X176304819Y-57333332D01*
X176304819Y-57333332D02*
X176352438Y-57428570D01*
X176352438Y-57428570D02*
X176400057Y-57476189D01*
X176400057Y-57476189D02*
X176542914Y-57571427D01*
X176542914Y-57571427D02*
X176733390Y-57619046D01*
X176733390Y-57619046D02*
X177114342Y-57619046D01*
X177114342Y-57619046D02*
X177209580Y-57571427D01*
X177209580Y-57571427D02*
X177257200Y-57523808D01*
X177257200Y-57523808D02*
X177304819Y-57428570D01*
X177304819Y-57428570D02*
X177304819Y-57238094D01*
X177304819Y-57238094D02*
X177257200Y-57142856D01*
X177257200Y-57142856D02*
X177209580Y-57095237D01*
X177209580Y-57095237D02*
X177114342Y-57047618D01*
X177114342Y-57047618D02*
X176876247Y-57047618D01*
X176876247Y-57047618D02*
X176781009Y-57095237D01*
X176781009Y-57095237D02*
X176733390Y-57142856D01*
X176733390Y-57142856D02*
X176685771Y-57238094D01*
X176685771Y-57238094D02*
X176685771Y-57428570D01*
X176685771Y-57428570D02*
X176733390Y-57523808D01*
X176733390Y-57523808D02*
X176781009Y-57571427D01*
X176781009Y-57571427D02*
X176876247Y-57619046D01*
X176304819Y-56428570D02*
X176304819Y-56333332D01*
X176304819Y-56333332D02*
X176352438Y-56238094D01*
X176352438Y-56238094D02*
X176400057Y-56190475D01*
X176400057Y-56190475D02*
X176495295Y-56142856D01*
X176495295Y-56142856D02*
X176685771Y-56095237D01*
X176685771Y-56095237D02*
X176923866Y-56095237D01*
X176923866Y-56095237D02*
X177114342Y-56142856D01*
X177114342Y-56142856D02*
X177209580Y-56190475D01*
X177209580Y-56190475D02*
X177257200Y-56238094D01*
X177257200Y-56238094D02*
X177304819Y-56333332D01*
X177304819Y-56333332D02*
X177304819Y-56428570D01*
X177304819Y-56428570D02*
X177257200Y-56523808D01*
X177257200Y-56523808D02*
X177209580Y-56571427D01*
X177209580Y-56571427D02*
X177114342Y-56619046D01*
X177114342Y-56619046D02*
X176923866Y-56666665D01*
X176923866Y-56666665D02*
X176685771Y-56666665D01*
X176685771Y-56666665D02*
X176495295Y-56619046D01*
X176495295Y-56619046D02*
X176400057Y-56571427D01*
X176400057Y-56571427D02*
X176352438Y-56523808D01*
X176352438Y-56523808D02*
X176304819Y-56428570D01*
X177209580Y-55666665D02*
X177257200Y-55619046D01*
X177257200Y-55619046D02*
X177304819Y-55666665D01*
X177304819Y-55666665D02*
X177257200Y-55714284D01*
X177257200Y-55714284D02*
X177209580Y-55666665D01*
X177209580Y-55666665D02*
X177304819Y-55666665D01*
X176304819Y-54999999D02*
X176304819Y-54904761D01*
X176304819Y-54904761D02*
X176352438Y-54809523D01*
X176352438Y-54809523D02*
X176400057Y-54761904D01*
X176400057Y-54761904D02*
X176495295Y-54714285D01*
X176495295Y-54714285D02*
X176685771Y-54666666D01*
X176685771Y-54666666D02*
X176923866Y-54666666D01*
X176923866Y-54666666D02*
X177114342Y-54714285D01*
X177114342Y-54714285D02*
X177209580Y-54761904D01*
X177209580Y-54761904D02*
X177257200Y-54809523D01*
X177257200Y-54809523D02*
X177304819Y-54904761D01*
X177304819Y-54904761D02*
X177304819Y-54999999D01*
X177304819Y-54999999D02*
X177257200Y-55095237D01*
X177257200Y-55095237D02*
X177209580Y-55142856D01*
X177209580Y-55142856D02*
X177114342Y-55190475D01*
X177114342Y-55190475D02*
X176923866Y-55238094D01*
X176923866Y-55238094D02*
X176685771Y-55238094D01*
X176685771Y-55238094D02*
X176495295Y-55190475D01*
X176495295Y-55190475D02*
X176400057Y-55142856D01*
X176400057Y-55142856D02*
X176352438Y-55095237D01*
X176352438Y-55095237D02*
X176304819Y-54999999D01*
X176304819Y-54047618D02*
X176304819Y-53952380D01*
X176304819Y-53952380D02*
X176352438Y-53857142D01*
X176352438Y-53857142D02*
X176400057Y-53809523D01*
X176400057Y-53809523D02*
X176495295Y-53761904D01*
X176495295Y-53761904D02*
X176685771Y-53714285D01*
X176685771Y-53714285D02*
X176923866Y-53714285D01*
X176923866Y-53714285D02*
X177114342Y-53761904D01*
X177114342Y-53761904D02*
X177209580Y-53809523D01*
X177209580Y-53809523D02*
X177257200Y-53857142D01*
X177257200Y-53857142D02*
X177304819Y-53952380D01*
X177304819Y-53952380D02*
X177304819Y-54047618D01*
X177304819Y-54047618D02*
X177257200Y-54142856D01*
X177257200Y-54142856D02*
X177209580Y-54190475D01*
X177209580Y-54190475D02*
X177114342Y-54238094D01*
X177114342Y-54238094D02*
X176923866Y-54285713D01*
X176923866Y-54285713D02*
X176685771Y-54285713D01*
X176685771Y-54285713D02*
X176495295Y-54238094D01*
X176495295Y-54238094D02*
X176400057Y-54190475D01*
X176400057Y-54190475D02*
X176352438Y-54142856D01*
X176352438Y-54142856D02*
X176304819Y-54047618D01*
X176304819Y-53095237D02*
X176304819Y-52999999D01*
X176304819Y-52999999D02*
X176352438Y-52904761D01*
X176352438Y-52904761D02*
X176400057Y-52857142D01*
X176400057Y-52857142D02*
X176495295Y-52809523D01*
X176495295Y-52809523D02*
X176685771Y-52761904D01*
X176685771Y-52761904D02*
X176923866Y-52761904D01*
X176923866Y-52761904D02*
X177114342Y-52809523D01*
X177114342Y-52809523D02*
X177209580Y-52857142D01*
X177209580Y-52857142D02*
X177257200Y-52904761D01*
X177257200Y-52904761D02*
X177304819Y-52999999D01*
X177304819Y-52999999D02*
X177304819Y-53095237D01*
X177304819Y-53095237D02*
X177257200Y-53190475D01*
X177257200Y-53190475D02*
X177209580Y-53238094D01*
X177209580Y-53238094D02*
X177114342Y-53285713D01*
X177114342Y-53285713D02*
X176923866Y-53333332D01*
X176923866Y-53333332D02*
X176685771Y-53333332D01*
X176685771Y-53333332D02*
X176495295Y-53285713D01*
X176495295Y-53285713D02*
X176400057Y-53238094D01*
X176400057Y-53238094D02*
X176352438Y-53190475D01*
X176352438Y-53190475D02*
X176304819Y-53095237D01*
X176304819Y-52142856D02*
X176304819Y-52047618D01*
X176304819Y-52047618D02*
X176352438Y-51952380D01*
X176352438Y-51952380D02*
X176400057Y-51904761D01*
X176400057Y-51904761D02*
X176495295Y-51857142D01*
X176495295Y-51857142D02*
X176685771Y-51809523D01*
X176685771Y-51809523D02*
X176923866Y-51809523D01*
X176923866Y-51809523D02*
X177114342Y-51857142D01*
X177114342Y-51857142D02*
X177209580Y-51904761D01*
X177209580Y-51904761D02*
X177257200Y-51952380D01*
X177257200Y-51952380D02*
X177304819Y-52047618D01*
X177304819Y-52047618D02*
X177304819Y-52142856D01*
X177304819Y-52142856D02*
X177257200Y-52238094D01*
X177257200Y-52238094D02*
X177209580Y-52285713D01*
X177209580Y-52285713D02*
X177114342Y-52333332D01*
X177114342Y-52333332D02*
X176923866Y-52380951D01*
X176923866Y-52380951D02*
X176685771Y-52380951D01*
X176685771Y-52380951D02*
X176495295Y-52333332D01*
X176495295Y-52333332D02*
X176400057Y-52285713D01*
X176400057Y-52285713D02*
X176352438Y-52238094D01*
X176352438Y-52238094D02*
X176304819Y-52142856D01*
X177304819Y-50619046D02*
X176638152Y-50619046D01*
X176733390Y-50619046D02*
X176685771Y-50571427D01*
X176685771Y-50571427D02*
X176638152Y-50476189D01*
X176638152Y-50476189D02*
X176638152Y-50333332D01*
X176638152Y-50333332D02*
X176685771Y-50238094D01*
X176685771Y-50238094D02*
X176781009Y-50190475D01*
X176781009Y-50190475D02*
X177304819Y-50190475D01*
X176781009Y-50190475D02*
X176685771Y-50142856D01*
X176685771Y-50142856D02*
X176638152Y-50047618D01*
X176638152Y-50047618D02*
X176638152Y-49904761D01*
X176638152Y-49904761D02*
X176685771Y-49809522D01*
X176685771Y-49809522D02*
X176781009Y-49761903D01*
X176781009Y-49761903D02*
X177304819Y-49761903D01*
X177304819Y-49285713D02*
X176638152Y-49285713D01*
X176733390Y-49285713D02*
X176685771Y-49238094D01*
X176685771Y-49238094D02*
X176638152Y-49142856D01*
X176638152Y-49142856D02*
X176638152Y-48999999D01*
X176638152Y-48999999D02*
X176685771Y-48904761D01*
X176685771Y-48904761D02*
X176781009Y-48857142D01*
X176781009Y-48857142D02*
X177304819Y-48857142D01*
X176781009Y-48857142D02*
X176685771Y-48809523D01*
X176685771Y-48809523D02*
X176638152Y-48714285D01*
X176638152Y-48714285D02*
X176638152Y-48571428D01*
X176638152Y-48571428D02*
X176685771Y-48476189D01*
X176685771Y-48476189D02*
X176781009Y-48428570D01*
X176781009Y-48428570D02*
X177304819Y-48428570D01*
D11*
X167500000Y-23000000D02*
X178586420Y-23000000D01*
X167500000Y-83000000D02*
X178586420Y-83000000D01*
X178000000Y-23000000D02*
X178000000Y-83000000D01*
X178000000Y-23000000D02*
X178000000Y-83000000D01*
X178000000Y-23000000D02*
X178586421Y-24126504D01*
X178000000Y-23000000D02*
X177413579Y-24126504D01*
X178000000Y-83000000D02*
X177413579Y-81873496D01*
X178000000Y-83000000D02*
X178586421Y-81873496D01*
D10*
X160880952Y-88304819D02*
X160404762Y-88304819D01*
X160404762Y-88304819D02*
X160357143Y-88781009D01*
X160357143Y-88781009D02*
X160404762Y-88733390D01*
X160404762Y-88733390D02*
X160500000Y-88685771D01*
X160500000Y-88685771D02*
X160738095Y-88685771D01*
X160738095Y-88685771D02*
X160833333Y-88733390D01*
X160833333Y-88733390D02*
X160880952Y-88781009D01*
X160880952Y-88781009D02*
X160928571Y-88876247D01*
X160928571Y-88876247D02*
X160928571Y-89114342D01*
X160928571Y-89114342D02*
X160880952Y-89209580D01*
X160880952Y-89209580D02*
X160833333Y-89257200D01*
X160833333Y-89257200D02*
X160738095Y-89304819D01*
X160738095Y-89304819D02*
X160500000Y-89304819D01*
X160500000Y-89304819D02*
X160404762Y-89257200D01*
X160404762Y-89257200D02*
X160357143Y-89209580D01*
X161357143Y-89209580D02*
X161404762Y-89257200D01*
X161404762Y-89257200D02*
X161357143Y-89304819D01*
X161357143Y-89304819D02*
X161309524Y-89257200D01*
X161309524Y-89257200D02*
X161357143Y-89209580D01*
X161357143Y-89209580D02*
X161357143Y-89304819D01*
X162023809Y-88304819D02*
X162119047Y-88304819D01*
X162119047Y-88304819D02*
X162214285Y-88352438D01*
X162214285Y-88352438D02*
X162261904Y-88400057D01*
X162261904Y-88400057D02*
X162309523Y-88495295D01*
X162309523Y-88495295D02*
X162357142Y-88685771D01*
X162357142Y-88685771D02*
X162357142Y-88923866D01*
X162357142Y-88923866D02*
X162309523Y-89114342D01*
X162309523Y-89114342D02*
X162261904Y-89209580D01*
X162261904Y-89209580D02*
X162214285Y-89257200D01*
X162214285Y-89257200D02*
X162119047Y-89304819D01*
X162119047Y-89304819D02*
X162023809Y-89304819D01*
X162023809Y-89304819D02*
X161928571Y-89257200D01*
X161928571Y-89257200D02*
X161880952Y-89209580D01*
X161880952Y-89209580D02*
X161833333Y-89114342D01*
X161833333Y-89114342D02*
X161785714Y-88923866D01*
X161785714Y-88923866D02*
X161785714Y-88685771D01*
X161785714Y-88685771D02*
X161833333Y-88495295D01*
X161833333Y-88495295D02*
X161880952Y-88400057D01*
X161880952Y-88400057D02*
X161928571Y-88352438D01*
X161928571Y-88352438D02*
X162023809Y-88304819D01*
X162976190Y-88304819D02*
X163071428Y-88304819D01*
X163071428Y-88304819D02*
X163166666Y-88352438D01*
X163166666Y-88352438D02*
X163214285Y-88400057D01*
X163214285Y-88400057D02*
X163261904Y-88495295D01*
X163261904Y-88495295D02*
X163309523Y-88685771D01*
X163309523Y-88685771D02*
X163309523Y-88923866D01*
X163309523Y-88923866D02*
X163261904Y-89114342D01*
X163261904Y-89114342D02*
X163214285Y-89209580D01*
X163214285Y-89209580D02*
X163166666Y-89257200D01*
X163166666Y-89257200D02*
X163071428Y-89304819D01*
X163071428Y-89304819D02*
X162976190Y-89304819D01*
X162976190Y-89304819D02*
X162880952Y-89257200D01*
X162880952Y-89257200D02*
X162833333Y-89209580D01*
X162833333Y-89209580D02*
X162785714Y-89114342D01*
X162785714Y-89114342D02*
X162738095Y-88923866D01*
X162738095Y-88923866D02*
X162738095Y-88685771D01*
X162738095Y-88685771D02*
X162785714Y-88495295D01*
X162785714Y-88495295D02*
X162833333Y-88400057D01*
X162833333Y-88400057D02*
X162880952Y-88352438D01*
X162880952Y-88352438D02*
X162976190Y-88304819D01*
X163928571Y-88304819D02*
X164023809Y-88304819D01*
X164023809Y-88304819D02*
X164119047Y-88352438D01*
X164119047Y-88352438D02*
X164166666Y-88400057D01*
X164166666Y-88400057D02*
X164214285Y-88495295D01*
X164214285Y-88495295D02*
X164261904Y-88685771D01*
X164261904Y-88685771D02*
X164261904Y-88923866D01*
X164261904Y-88923866D02*
X164214285Y-89114342D01*
X164214285Y-89114342D02*
X164166666Y-89209580D01*
X164166666Y-89209580D02*
X164119047Y-89257200D01*
X164119047Y-89257200D02*
X164023809Y-89304819D01*
X164023809Y-89304819D02*
X163928571Y-89304819D01*
X163928571Y-89304819D02*
X163833333Y-89257200D01*
X163833333Y-89257200D02*
X163785714Y-89209580D01*
X163785714Y-89209580D02*
X163738095Y-89114342D01*
X163738095Y-89114342D02*
X163690476Y-88923866D01*
X163690476Y-88923866D02*
X163690476Y-88685771D01*
X163690476Y-88685771D02*
X163738095Y-88495295D01*
X163738095Y-88495295D02*
X163785714Y-88400057D01*
X163785714Y-88400057D02*
X163833333Y-88352438D01*
X163833333Y-88352438D02*
X163928571Y-88304819D01*
X164880952Y-88304819D02*
X164976190Y-88304819D01*
X164976190Y-88304819D02*
X165071428Y-88352438D01*
X165071428Y-88352438D02*
X165119047Y-88400057D01*
X165119047Y-88400057D02*
X165166666Y-88495295D01*
X165166666Y-88495295D02*
X165214285Y-88685771D01*
X165214285Y-88685771D02*
X165214285Y-88923866D01*
X165214285Y-88923866D02*
X165166666Y-89114342D01*
X165166666Y-89114342D02*
X165119047Y-89209580D01*
X165119047Y-89209580D02*
X165071428Y-89257200D01*
X165071428Y-89257200D02*
X164976190Y-89304819D01*
X164976190Y-89304819D02*
X164880952Y-89304819D01*
X164880952Y-89304819D02*
X164785714Y-89257200D01*
X164785714Y-89257200D02*
X164738095Y-89209580D01*
X164738095Y-89209580D02*
X164690476Y-89114342D01*
X164690476Y-89114342D02*
X164642857Y-88923866D01*
X164642857Y-88923866D02*
X164642857Y-88685771D01*
X164642857Y-88685771D02*
X164690476Y-88495295D01*
X164690476Y-88495295D02*
X164738095Y-88400057D01*
X164738095Y-88400057D02*
X164785714Y-88352438D01*
X164785714Y-88352438D02*
X164880952Y-88304819D01*
X166404762Y-89304819D02*
X166404762Y-88638152D01*
X166404762Y-88733390D02*
X166452381Y-88685771D01*
X166452381Y-88685771D02*
X166547619Y-88638152D01*
X166547619Y-88638152D02*
X166690476Y-88638152D01*
X166690476Y-88638152D02*
X166785714Y-88685771D01*
X166785714Y-88685771D02*
X166833333Y-88781009D01*
X166833333Y-88781009D02*
X166833333Y-89304819D01*
X166833333Y-88781009D02*
X166880952Y-88685771D01*
X166880952Y-88685771D02*
X166976190Y-88638152D01*
X166976190Y-88638152D02*
X167119047Y-88638152D01*
X167119047Y-88638152D02*
X167214286Y-88685771D01*
X167214286Y-88685771D02*
X167261905Y-88781009D01*
X167261905Y-88781009D02*
X167261905Y-89304819D01*
X167738095Y-89304819D02*
X167738095Y-88638152D01*
X167738095Y-88733390D02*
X167785714Y-88685771D01*
X167785714Y-88685771D02*
X167880952Y-88638152D01*
X167880952Y-88638152D02*
X168023809Y-88638152D01*
X168023809Y-88638152D02*
X168119047Y-88685771D01*
X168119047Y-88685771D02*
X168166666Y-88781009D01*
X168166666Y-88781009D02*
X168166666Y-89304819D01*
X168166666Y-88781009D02*
X168214285Y-88685771D01*
X168214285Y-88685771D02*
X168309523Y-88638152D01*
X168309523Y-88638152D02*
X168452380Y-88638152D01*
X168452380Y-88638152D02*
X168547619Y-88685771D01*
X168547619Y-88685771D02*
X168595238Y-88781009D01*
X168595238Y-88781009D02*
X168595238Y-89304819D01*
D11*
X162000000Y-81500000D02*
X162000000Y-90586420D01*
X167000000Y-81500000D02*
X167000000Y-90586420D01*
X162000000Y-90000000D02*
X167000000Y-90000000D01*
X162000000Y-90000000D02*
X167000000Y-90000000D01*
X162000000Y-90000000D02*
X163126504Y-89413579D01*
X162000000Y-90000000D02*
X163126504Y-90586421D01*
X167000000Y-90000000D02*
X165873496Y-90586421D01*
X167000000Y-90000000D02*
X165873496Y-89413579D01*
D10*
X88976190Y-96304819D02*
X88404762Y-96304819D01*
X88690476Y-96304819D02*
X88690476Y-95304819D01*
X88690476Y-95304819D02*
X88595238Y-95447676D01*
X88595238Y-95447676D02*
X88500000Y-95542914D01*
X88500000Y-95542914D02*
X88404762Y-95590533D01*
X89833333Y-95638152D02*
X89833333Y-96304819D01*
X89595238Y-95257200D02*
X89357143Y-95971485D01*
X89357143Y-95971485D02*
X89976190Y-95971485D01*
X90880952Y-96304819D02*
X90309524Y-96304819D01*
X90595238Y-96304819D02*
X90595238Y-95304819D01*
X90595238Y-95304819D02*
X90500000Y-95447676D01*
X90500000Y-95447676D02*
X90404762Y-95542914D01*
X90404762Y-95542914D02*
X90309524Y-95590533D01*
X91309524Y-96209580D02*
X91357143Y-96257200D01*
X91357143Y-96257200D02*
X91309524Y-96304819D01*
X91309524Y-96304819D02*
X91261905Y-96257200D01*
X91261905Y-96257200D02*
X91309524Y-96209580D01*
X91309524Y-96209580D02*
X91309524Y-96304819D01*
X91976190Y-95304819D02*
X92071428Y-95304819D01*
X92071428Y-95304819D02*
X92166666Y-95352438D01*
X92166666Y-95352438D02*
X92214285Y-95400057D01*
X92214285Y-95400057D02*
X92261904Y-95495295D01*
X92261904Y-95495295D02*
X92309523Y-95685771D01*
X92309523Y-95685771D02*
X92309523Y-95923866D01*
X92309523Y-95923866D02*
X92261904Y-96114342D01*
X92261904Y-96114342D02*
X92214285Y-96209580D01*
X92214285Y-96209580D02*
X92166666Y-96257200D01*
X92166666Y-96257200D02*
X92071428Y-96304819D01*
X92071428Y-96304819D02*
X91976190Y-96304819D01*
X91976190Y-96304819D02*
X91880952Y-96257200D01*
X91880952Y-96257200D02*
X91833333Y-96209580D01*
X91833333Y-96209580D02*
X91785714Y-96114342D01*
X91785714Y-96114342D02*
X91738095Y-95923866D01*
X91738095Y-95923866D02*
X91738095Y-95685771D01*
X91738095Y-95685771D02*
X91785714Y-95495295D01*
X91785714Y-95495295D02*
X91833333Y-95400057D01*
X91833333Y-95400057D02*
X91880952Y-95352438D01*
X91880952Y-95352438D02*
X91976190Y-95304819D01*
X92928571Y-95304819D02*
X93023809Y-95304819D01*
X93023809Y-95304819D02*
X93119047Y-95352438D01*
X93119047Y-95352438D02*
X93166666Y-95400057D01*
X93166666Y-95400057D02*
X93214285Y-95495295D01*
X93214285Y-95495295D02*
X93261904Y-95685771D01*
X93261904Y-95685771D02*
X93261904Y-95923866D01*
X93261904Y-95923866D02*
X93214285Y-96114342D01*
X93214285Y-96114342D02*
X93166666Y-96209580D01*
X93166666Y-96209580D02*
X93119047Y-96257200D01*
X93119047Y-96257200D02*
X93023809Y-96304819D01*
X93023809Y-96304819D02*
X92928571Y-96304819D01*
X92928571Y-96304819D02*
X92833333Y-96257200D01*
X92833333Y-96257200D02*
X92785714Y-96209580D01*
X92785714Y-96209580D02*
X92738095Y-96114342D01*
X92738095Y-96114342D02*
X92690476Y-95923866D01*
X92690476Y-95923866D02*
X92690476Y-95685771D01*
X92690476Y-95685771D02*
X92738095Y-95495295D01*
X92738095Y-95495295D02*
X92785714Y-95400057D01*
X92785714Y-95400057D02*
X92833333Y-95352438D01*
X92833333Y-95352438D02*
X92928571Y-95304819D01*
X93880952Y-95304819D02*
X93976190Y-95304819D01*
X93976190Y-95304819D02*
X94071428Y-95352438D01*
X94071428Y-95352438D02*
X94119047Y-95400057D01*
X94119047Y-95400057D02*
X94166666Y-95495295D01*
X94166666Y-95495295D02*
X94214285Y-95685771D01*
X94214285Y-95685771D02*
X94214285Y-95923866D01*
X94214285Y-95923866D02*
X94166666Y-96114342D01*
X94166666Y-96114342D02*
X94119047Y-96209580D01*
X94119047Y-96209580D02*
X94071428Y-96257200D01*
X94071428Y-96257200D02*
X93976190Y-96304819D01*
X93976190Y-96304819D02*
X93880952Y-96304819D01*
X93880952Y-96304819D02*
X93785714Y-96257200D01*
X93785714Y-96257200D02*
X93738095Y-96209580D01*
X93738095Y-96209580D02*
X93690476Y-96114342D01*
X93690476Y-96114342D02*
X93642857Y-95923866D01*
X93642857Y-95923866D02*
X93642857Y-95685771D01*
X93642857Y-95685771D02*
X93690476Y-95495295D01*
X93690476Y-95495295D02*
X93738095Y-95400057D01*
X93738095Y-95400057D02*
X93785714Y-95352438D01*
X93785714Y-95352438D02*
X93880952Y-95304819D01*
X94833333Y-95304819D02*
X94928571Y-95304819D01*
X94928571Y-95304819D02*
X95023809Y-95352438D01*
X95023809Y-95352438D02*
X95071428Y-95400057D01*
X95071428Y-95400057D02*
X95119047Y-95495295D01*
X95119047Y-95495295D02*
X95166666Y-95685771D01*
X95166666Y-95685771D02*
X95166666Y-95923866D01*
X95166666Y-95923866D02*
X95119047Y-96114342D01*
X95119047Y-96114342D02*
X95071428Y-96209580D01*
X95071428Y-96209580D02*
X95023809Y-96257200D01*
X95023809Y-96257200D02*
X94928571Y-96304819D01*
X94928571Y-96304819D02*
X94833333Y-96304819D01*
X94833333Y-96304819D02*
X94738095Y-96257200D01*
X94738095Y-96257200D02*
X94690476Y-96209580D01*
X94690476Y-96209580D02*
X94642857Y-96114342D01*
X94642857Y-96114342D02*
X94595238Y-95923866D01*
X94595238Y-95923866D02*
X94595238Y-95685771D01*
X94595238Y-95685771D02*
X94642857Y-95495295D01*
X94642857Y-95495295D02*
X94690476Y-95400057D01*
X94690476Y-95400057D02*
X94738095Y-95352438D01*
X94738095Y-95352438D02*
X94833333Y-95304819D01*
X96357143Y-96304819D02*
X96357143Y-95638152D01*
X96357143Y-95733390D02*
X96404762Y-95685771D01*
X96404762Y-95685771D02*
X96500000Y-95638152D01*
X96500000Y-95638152D02*
X96642857Y-95638152D01*
X96642857Y-95638152D02*
X96738095Y-95685771D01*
X96738095Y-95685771D02*
X96785714Y-95781009D01*
X96785714Y-95781009D02*
X96785714Y-96304819D01*
X96785714Y-95781009D02*
X96833333Y-95685771D01*
X96833333Y-95685771D02*
X96928571Y-95638152D01*
X96928571Y-95638152D02*
X97071428Y-95638152D01*
X97071428Y-95638152D02*
X97166667Y-95685771D01*
X97166667Y-95685771D02*
X97214286Y-95781009D01*
X97214286Y-95781009D02*
X97214286Y-96304819D01*
X97690476Y-96304819D02*
X97690476Y-95638152D01*
X97690476Y-95733390D02*
X97738095Y-95685771D01*
X97738095Y-95685771D02*
X97833333Y-95638152D01*
X97833333Y-95638152D02*
X97976190Y-95638152D01*
X97976190Y-95638152D02*
X98071428Y-95685771D01*
X98071428Y-95685771D02*
X98119047Y-95781009D01*
X98119047Y-95781009D02*
X98119047Y-96304819D01*
X98119047Y-95781009D02*
X98166666Y-95685771D01*
X98166666Y-95685771D02*
X98261904Y-95638152D01*
X98261904Y-95638152D02*
X98404761Y-95638152D01*
X98404761Y-95638152D02*
X98500000Y-95685771D01*
X98500000Y-95685771D02*
X98547619Y-95781009D01*
X98547619Y-95781009D02*
X98547619Y-96304819D01*
D11*
X164000000Y-86500000D02*
X164000000Y-97586420D01*
X23000000Y-86500000D02*
X23000000Y-97586420D01*
X164000000Y-97000000D02*
X23000000Y-97000000D01*
X164000000Y-97000000D02*
X23000000Y-97000000D01*
X164000000Y-97000000D02*
X162873496Y-97586421D01*
X164000000Y-97000000D02*
X162873496Y-96413579D01*
X23000000Y-97000000D02*
X24126504Y-96413579D01*
X23000000Y-97000000D02*
X24126504Y-97586421D01*
D10*
X173304819Y-57095237D02*
X173304819Y-57571427D01*
X173304819Y-57571427D02*
X173781009Y-57619046D01*
X173781009Y-57619046D02*
X173733390Y-57571427D01*
X173733390Y-57571427D02*
X173685771Y-57476189D01*
X173685771Y-57476189D02*
X173685771Y-57238094D01*
X173685771Y-57238094D02*
X173733390Y-57142856D01*
X173733390Y-57142856D02*
X173781009Y-57095237D01*
X173781009Y-57095237D02*
X173876247Y-57047618D01*
X173876247Y-57047618D02*
X174114342Y-57047618D01*
X174114342Y-57047618D02*
X174209580Y-57095237D01*
X174209580Y-57095237D02*
X174257200Y-57142856D01*
X174257200Y-57142856D02*
X174304819Y-57238094D01*
X174304819Y-57238094D02*
X174304819Y-57476189D01*
X174304819Y-57476189D02*
X174257200Y-57571427D01*
X174257200Y-57571427D02*
X174209580Y-57619046D01*
X173304819Y-56190475D02*
X173304819Y-56380951D01*
X173304819Y-56380951D02*
X173352438Y-56476189D01*
X173352438Y-56476189D02*
X173400057Y-56523808D01*
X173400057Y-56523808D02*
X173542914Y-56619046D01*
X173542914Y-56619046D02*
X173733390Y-56666665D01*
X173733390Y-56666665D02*
X174114342Y-56666665D01*
X174114342Y-56666665D02*
X174209580Y-56619046D01*
X174209580Y-56619046D02*
X174257200Y-56571427D01*
X174257200Y-56571427D02*
X174304819Y-56476189D01*
X174304819Y-56476189D02*
X174304819Y-56285713D01*
X174304819Y-56285713D02*
X174257200Y-56190475D01*
X174257200Y-56190475D02*
X174209580Y-56142856D01*
X174209580Y-56142856D02*
X174114342Y-56095237D01*
X174114342Y-56095237D02*
X173876247Y-56095237D01*
X173876247Y-56095237D02*
X173781009Y-56142856D01*
X173781009Y-56142856D02*
X173733390Y-56190475D01*
X173733390Y-56190475D02*
X173685771Y-56285713D01*
X173685771Y-56285713D02*
X173685771Y-56476189D01*
X173685771Y-56476189D02*
X173733390Y-56571427D01*
X173733390Y-56571427D02*
X173781009Y-56619046D01*
X173781009Y-56619046D02*
X173876247Y-56666665D01*
X174209580Y-55666665D02*
X174257200Y-55619046D01*
X174257200Y-55619046D02*
X174304819Y-55666665D01*
X174304819Y-55666665D02*
X174257200Y-55714284D01*
X174257200Y-55714284D02*
X174209580Y-55666665D01*
X174209580Y-55666665D02*
X174304819Y-55666665D01*
X173304819Y-54999999D02*
X173304819Y-54904761D01*
X173304819Y-54904761D02*
X173352438Y-54809523D01*
X173352438Y-54809523D02*
X173400057Y-54761904D01*
X173400057Y-54761904D02*
X173495295Y-54714285D01*
X173495295Y-54714285D02*
X173685771Y-54666666D01*
X173685771Y-54666666D02*
X173923866Y-54666666D01*
X173923866Y-54666666D02*
X174114342Y-54714285D01*
X174114342Y-54714285D02*
X174209580Y-54761904D01*
X174209580Y-54761904D02*
X174257200Y-54809523D01*
X174257200Y-54809523D02*
X174304819Y-54904761D01*
X174304819Y-54904761D02*
X174304819Y-54999999D01*
X174304819Y-54999999D02*
X174257200Y-55095237D01*
X174257200Y-55095237D02*
X174209580Y-55142856D01*
X174209580Y-55142856D02*
X174114342Y-55190475D01*
X174114342Y-55190475D02*
X173923866Y-55238094D01*
X173923866Y-55238094D02*
X173685771Y-55238094D01*
X173685771Y-55238094D02*
X173495295Y-55190475D01*
X173495295Y-55190475D02*
X173400057Y-55142856D01*
X173400057Y-55142856D02*
X173352438Y-55095237D01*
X173352438Y-55095237D02*
X173304819Y-54999999D01*
X173304819Y-54047618D02*
X173304819Y-53952380D01*
X173304819Y-53952380D02*
X173352438Y-53857142D01*
X173352438Y-53857142D02*
X173400057Y-53809523D01*
X173400057Y-53809523D02*
X173495295Y-53761904D01*
X173495295Y-53761904D02*
X173685771Y-53714285D01*
X173685771Y-53714285D02*
X173923866Y-53714285D01*
X173923866Y-53714285D02*
X174114342Y-53761904D01*
X174114342Y-53761904D02*
X174209580Y-53809523D01*
X174209580Y-53809523D02*
X174257200Y-53857142D01*
X174257200Y-53857142D02*
X174304819Y-53952380D01*
X174304819Y-53952380D02*
X174304819Y-54047618D01*
X174304819Y-54047618D02*
X174257200Y-54142856D01*
X174257200Y-54142856D02*
X174209580Y-54190475D01*
X174209580Y-54190475D02*
X174114342Y-54238094D01*
X174114342Y-54238094D02*
X173923866Y-54285713D01*
X173923866Y-54285713D02*
X173685771Y-54285713D01*
X173685771Y-54285713D02*
X173495295Y-54238094D01*
X173495295Y-54238094D02*
X173400057Y-54190475D01*
X173400057Y-54190475D02*
X173352438Y-54142856D01*
X173352438Y-54142856D02*
X173304819Y-54047618D01*
X173304819Y-53095237D02*
X173304819Y-52999999D01*
X173304819Y-52999999D02*
X173352438Y-52904761D01*
X173352438Y-52904761D02*
X173400057Y-52857142D01*
X173400057Y-52857142D02*
X173495295Y-52809523D01*
X173495295Y-52809523D02*
X173685771Y-52761904D01*
X173685771Y-52761904D02*
X173923866Y-52761904D01*
X173923866Y-52761904D02*
X174114342Y-52809523D01*
X174114342Y-52809523D02*
X174209580Y-52857142D01*
X174209580Y-52857142D02*
X174257200Y-52904761D01*
X174257200Y-52904761D02*
X174304819Y-52999999D01*
X174304819Y-52999999D02*
X174304819Y-53095237D01*
X174304819Y-53095237D02*
X174257200Y-53190475D01*
X174257200Y-53190475D02*
X174209580Y-53238094D01*
X174209580Y-53238094D02*
X174114342Y-53285713D01*
X174114342Y-53285713D02*
X173923866Y-53333332D01*
X173923866Y-53333332D02*
X173685771Y-53333332D01*
X173685771Y-53333332D02*
X173495295Y-53285713D01*
X173495295Y-53285713D02*
X173400057Y-53238094D01*
X173400057Y-53238094D02*
X173352438Y-53190475D01*
X173352438Y-53190475D02*
X173304819Y-53095237D01*
X173304819Y-52142856D02*
X173304819Y-52047618D01*
X173304819Y-52047618D02*
X173352438Y-51952380D01*
X173352438Y-51952380D02*
X173400057Y-51904761D01*
X173400057Y-51904761D02*
X173495295Y-51857142D01*
X173495295Y-51857142D02*
X173685771Y-51809523D01*
X173685771Y-51809523D02*
X173923866Y-51809523D01*
X173923866Y-51809523D02*
X174114342Y-51857142D01*
X174114342Y-51857142D02*
X174209580Y-51904761D01*
X174209580Y-51904761D02*
X174257200Y-51952380D01*
X174257200Y-51952380D02*
X174304819Y-52047618D01*
X174304819Y-52047618D02*
X174304819Y-52142856D01*
X174304819Y-52142856D02*
X174257200Y-52238094D01*
X174257200Y-52238094D02*
X174209580Y-52285713D01*
X174209580Y-52285713D02*
X174114342Y-52333332D01*
X174114342Y-52333332D02*
X173923866Y-52380951D01*
X173923866Y-52380951D02*
X173685771Y-52380951D01*
X173685771Y-52380951D02*
X173495295Y-52333332D01*
X173495295Y-52333332D02*
X173400057Y-52285713D01*
X173400057Y-52285713D02*
X173352438Y-52238094D01*
X173352438Y-52238094D02*
X173304819Y-52142856D01*
X174304819Y-50619046D02*
X173638152Y-50619046D01*
X173733390Y-50619046D02*
X173685771Y-50571427D01*
X173685771Y-50571427D02*
X173638152Y-50476189D01*
X173638152Y-50476189D02*
X173638152Y-50333332D01*
X173638152Y-50333332D02*
X173685771Y-50238094D01*
X173685771Y-50238094D02*
X173781009Y-50190475D01*
X173781009Y-50190475D02*
X174304819Y-50190475D01*
X173781009Y-50190475D02*
X173685771Y-50142856D01*
X173685771Y-50142856D02*
X173638152Y-50047618D01*
X173638152Y-50047618D02*
X173638152Y-49904761D01*
X173638152Y-49904761D02*
X173685771Y-49809522D01*
X173685771Y-49809522D02*
X173781009Y-49761903D01*
X173781009Y-49761903D02*
X174304819Y-49761903D01*
X174304819Y-49285713D02*
X173638152Y-49285713D01*
X173733390Y-49285713D02*
X173685771Y-49238094D01*
X173685771Y-49238094D02*
X173638152Y-49142856D01*
X173638152Y-49142856D02*
X173638152Y-48999999D01*
X173638152Y-48999999D02*
X173685771Y-48904761D01*
X173685771Y-48904761D02*
X173781009Y-48857142D01*
X173781009Y-48857142D02*
X174304819Y-48857142D01*
X173781009Y-48857142D02*
X173685771Y-48809523D01*
X173685771Y-48809523D02*
X173638152Y-48714285D01*
X173638152Y-48714285D02*
X173638152Y-48571428D01*
X173638152Y-48571428D02*
X173685771Y-48476189D01*
X173685771Y-48476189D02*
X173781009Y-48428570D01*
X173781009Y-48428570D02*
X174304819Y-48428570D01*
D11*
X162500000Y-25000000D02*
X175586420Y-25000000D01*
X162500000Y-81000000D02*
X175586420Y-81000000D01*
X175000000Y-25000000D02*
X175000000Y-81000000D01*
X175000000Y-25000000D02*
X175000000Y-81000000D01*
X175000000Y-25000000D02*
X175586421Y-26126504D01*
X175000000Y-25000000D02*
X174413579Y-26126504D01*
X175000000Y-81000000D02*
X174413579Y-79873496D01*
X175000000Y-81000000D02*
X175586421Y-79873496D01*
D10*
X18880952Y-88304819D02*
X18404762Y-88304819D01*
X18404762Y-88304819D02*
X18357143Y-88781009D01*
X18357143Y-88781009D02*
X18404762Y-88733390D01*
X18404762Y-88733390D02*
X18500000Y-88685771D01*
X18500000Y-88685771D02*
X18738095Y-88685771D01*
X18738095Y-88685771D02*
X18833333Y-88733390D01*
X18833333Y-88733390D02*
X18880952Y-88781009D01*
X18880952Y-88781009D02*
X18928571Y-88876247D01*
X18928571Y-88876247D02*
X18928571Y-89114342D01*
X18928571Y-89114342D02*
X18880952Y-89209580D01*
X18880952Y-89209580D02*
X18833333Y-89257200D01*
X18833333Y-89257200D02*
X18738095Y-89304819D01*
X18738095Y-89304819D02*
X18500000Y-89304819D01*
X18500000Y-89304819D02*
X18404762Y-89257200D01*
X18404762Y-89257200D02*
X18357143Y-89209580D01*
X19357143Y-89209580D02*
X19404762Y-89257200D01*
X19404762Y-89257200D02*
X19357143Y-89304819D01*
X19357143Y-89304819D02*
X19309524Y-89257200D01*
X19309524Y-89257200D02*
X19357143Y-89209580D01*
X19357143Y-89209580D02*
X19357143Y-89304819D01*
X20023809Y-88304819D02*
X20119047Y-88304819D01*
X20119047Y-88304819D02*
X20214285Y-88352438D01*
X20214285Y-88352438D02*
X20261904Y-88400057D01*
X20261904Y-88400057D02*
X20309523Y-88495295D01*
X20309523Y-88495295D02*
X20357142Y-88685771D01*
X20357142Y-88685771D02*
X20357142Y-88923866D01*
X20357142Y-88923866D02*
X20309523Y-89114342D01*
X20309523Y-89114342D02*
X20261904Y-89209580D01*
X20261904Y-89209580D02*
X20214285Y-89257200D01*
X20214285Y-89257200D02*
X20119047Y-89304819D01*
X20119047Y-89304819D02*
X20023809Y-89304819D01*
X20023809Y-89304819D02*
X19928571Y-89257200D01*
X19928571Y-89257200D02*
X19880952Y-89209580D01*
X19880952Y-89209580D02*
X19833333Y-89114342D01*
X19833333Y-89114342D02*
X19785714Y-88923866D01*
X19785714Y-88923866D02*
X19785714Y-88685771D01*
X19785714Y-88685771D02*
X19833333Y-88495295D01*
X19833333Y-88495295D02*
X19880952Y-88400057D01*
X19880952Y-88400057D02*
X19928571Y-88352438D01*
X19928571Y-88352438D02*
X20023809Y-88304819D01*
X20976190Y-88304819D02*
X21071428Y-88304819D01*
X21071428Y-88304819D02*
X21166666Y-88352438D01*
X21166666Y-88352438D02*
X21214285Y-88400057D01*
X21214285Y-88400057D02*
X21261904Y-88495295D01*
X21261904Y-88495295D02*
X21309523Y-88685771D01*
X21309523Y-88685771D02*
X21309523Y-88923866D01*
X21309523Y-88923866D02*
X21261904Y-89114342D01*
X21261904Y-89114342D02*
X21214285Y-89209580D01*
X21214285Y-89209580D02*
X21166666Y-89257200D01*
X21166666Y-89257200D02*
X21071428Y-89304819D01*
X21071428Y-89304819D02*
X20976190Y-89304819D01*
X20976190Y-89304819D02*
X20880952Y-89257200D01*
X20880952Y-89257200D02*
X20833333Y-89209580D01*
X20833333Y-89209580D02*
X20785714Y-89114342D01*
X20785714Y-89114342D02*
X20738095Y-88923866D01*
X20738095Y-88923866D02*
X20738095Y-88685771D01*
X20738095Y-88685771D02*
X20785714Y-88495295D01*
X20785714Y-88495295D02*
X20833333Y-88400057D01*
X20833333Y-88400057D02*
X20880952Y-88352438D01*
X20880952Y-88352438D02*
X20976190Y-88304819D01*
X21928571Y-88304819D02*
X22023809Y-88304819D01*
X22023809Y-88304819D02*
X22119047Y-88352438D01*
X22119047Y-88352438D02*
X22166666Y-88400057D01*
X22166666Y-88400057D02*
X22214285Y-88495295D01*
X22214285Y-88495295D02*
X22261904Y-88685771D01*
X22261904Y-88685771D02*
X22261904Y-88923866D01*
X22261904Y-88923866D02*
X22214285Y-89114342D01*
X22214285Y-89114342D02*
X22166666Y-89209580D01*
X22166666Y-89209580D02*
X22119047Y-89257200D01*
X22119047Y-89257200D02*
X22023809Y-89304819D01*
X22023809Y-89304819D02*
X21928571Y-89304819D01*
X21928571Y-89304819D02*
X21833333Y-89257200D01*
X21833333Y-89257200D02*
X21785714Y-89209580D01*
X21785714Y-89209580D02*
X21738095Y-89114342D01*
X21738095Y-89114342D02*
X21690476Y-88923866D01*
X21690476Y-88923866D02*
X21690476Y-88685771D01*
X21690476Y-88685771D02*
X21738095Y-88495295D01*
X21738095Y-88495295D02*
X21785714Y-88400057D01*
X21785714Y-88400057D02*
X21833333Y-88352438D01*
X21833333Y-88352438D02*
X21928571Y-88304819D01*
X22880952Y-88304819D02*
X22976190Y-88304819D01*
X22976190Y-88304819D02*
X23071428Y-88352438D01*
X23071428Y-88352438D02*
X23119047Y-88400057D01*
X23119047Y-88400057D02*
X23166666Y-88495295D01*
X23166666Y-88495295D02*
X23214285Y-88685771D01*
X23214285Y-88685771D02*
X23214285Y-88923866D01*
X23214285Y-88923866D02*
X23166666Y-89114342D01*
X23166666Y-89114342D02*
X23119047Y-89209580D01*
X23119047Y-89209580D02*
X23071428Y-89257200D01*
X23071428Y-89257200D02*
X22976190Y-89304819D01*
X22976190Y-89304819D02*
X22880952Y-89304819D01*
X22880952Y-89304819D02*
X22785714Y-89257200D01*
X22785714Y-89257200D02*
X22738095Y-89209580D01*
X22738095Y-89209580D02*
X22690476Y-89114342D01*
X22690476Y-89114342D02*
X22642857Y-88923866D01*
X22642857Y-88923866D02*
X22642857Y-88685771D01*
X22642857Y-88685771D02*
X22690476Y-88495295D01*
X22690476Y-88495295D02*
X22738095Y-88400057D01*
X22738095Y-88400057D02*
X22785714Y-88352438D01*
X22785714Y-88352438D02*
X22880952Y-88304819D01*
X24404762Y-89304819D02*
X24404762Y-88638152D01*
X24404762Y-88733390D02*
X24452381Y-88685771D01*
X24452381Y-88685771D02*
X24547619Y-88638152D01*
X24547619Y-88638152D02*
X24690476Y-88638152D01*
X24690476Y-88638152D02*
X24785714Y-88685771D01*
X24785714Y-88685771D02*
X24833333Y-88781009D01*
X24833333Y-88781009D02*
X24833333Y-89304819D01*
X24833333Y-88781009D02*
X24880952Y-88685771D01*
X24880952Y-88685771D02*
X24976190Y-88638152D01*
X24976190Y-88638152D02*
X25119047Y-88638152D01*
X25119047Y-88638152D02*
X25214286Y-88685771D01*
X25214286Y-88685771D02*
X25261905Y-88781009D01*
X25261905Y-88781009D02*
X25261905Y-89304819D01*
X25738095Y-89304819D02*
X25738095Y-88638152D01*
X25738095Y-88733390D02*
X25785714Y-88685771D01*
X25785714Y-88685771D02*
X25880952Y-88638152D01*
X25880952Y-88638152D02*
X26023809Y-88638152D01*
X26023809Y-88638152D02*
X26119047Y-88685771D01*
X26119047Y-88685771D02*
X26166666Y-88781009D01*
X26166666Y-88781009D02*
X26166666Y-89304819D01*
X26166666Y-88781009D02*
X26214285Y-88685771D01*
X26214285Y-88685771D02*
X26309523Y-88638152D01*
X26309523Y-88638152D02*
X26452380Y-88638152D01*
X26452380Y-88638152D02*
X26547619Y-88685771D01*
X26547619Y-88685771D02*
X26595238Y-88781009D01*
X26595238Y-88781009D02*
X26595238Y-89304819D01*
D11*
X25000000Y-81500000D02*
X25000000Y-90586420D01*
X20000000Y-81500000D02*
X20000000Y-90586420D01*
X25000000Y-90000000D02*
X20000000Y-90000000D01*
X25000000Y-90000000D02*
X20000000Y-90000000D01*
X25000000Y-90000000D02*
X23873496Y-90586421D01*
X25000000Y-90000000D02*
X23873496Y-89413579D01*
X20000000Y-90000000D02*
X21126504Y-89413579D01*
X20000000Y-90000000D02*
X21126504Y-90586421D01*
D10*
X157857143Y-17400057D02*
X157904762Y-17352438D01*
X157904762Y-17352438D02*
X158000000Y-17304819D01*
X158000000Y-17304819D02*
X158238095Y-17304819D01*
X158238095Y-17304819D02*
X158333333Y-17352438D01*
X158333333Y-17352438D02*
X158380952Y-17400057D01*
X158380952Y-17400057D02*
X158428571Y-17495295D01*
X158428571Y-17495295D02*
X158428571Y-17590533D01*
X158428571Y-17590533D02*
X158380952Y-17733390D01*
X158380952Y-17733390D02*
X157809524Y-18304819D01*
X157809524Y-18304819D02*
X158428571Y-18304819D01*
X158857143Y-18209580D02*
X158904762Y-18257200D01*
X158904762Y-18257200D02*
X158857143Y-18304819D01*
X158857143Y-18304819D02*
X158809524Y-18257200D01*
X158809524Y-18257200D02*
X158857143Y-18209580D01*
X158857143Y-18209580D02*
X158857143Y-18304819D01*
X159523809Y-17304819D02*
X159619047Y-17304819D01*
X159619047Y-17304819D02*
X159714285Y-17352438D01*
X159714285Y-17352438D02*
X159761904Y-17400057D01*
X159761904Y-17400057D02*
X159809523Y-17495295D01*
X159809523Y-17495295D02*
X159857142Y-17685771D01*
X159857142Y-17685771D02*
X159857142Y-17923866D01*
X159857142Y-17923866D02*
X159809523Y-18114342D01*
X159809523Y-18114342D02*
X159761904Y-18209580D01*
X159761904Y-18209580D02*
X159714285Y-18257200D01*
X159714285Y-18257200D02*
X159619047Y-18304819D01*
X159619047Y-18304819D02*
X159523809Y-18304819D01*
X159523809Y-18304819D02*
X159428571Y-18257200D01*
X159428571Y-18257200D02*
X159380952Y-18209580D01*
X159380952Y-18209580D02*
X159333333Y-18114342D01*
X159333333Y-18114342D02*
X159285714Y-17923866D01*
X159285714Y-17923866D02*
X159285714Y-17685771D01*
X159285714Y-17685771D02*
X159333333Y-17495295D01*
X159333333Y-17495295D02*
X159380952Y-17400057D01*
X159380952Y-17400057D02*
X159428571Y-17352438D01*
X159428571Y-17352438D02*
X159523809Y-17304819D01*
X160476190Y-17304819D02*
X160571428Y-17304819D01*
X160571428Y-17304819D02*
X160666666Y-17352438D01*
X160666666Y-17352438D02*
X160714285Y-17400057D01*
X160714285Y-17400057D02*
X160761904Y-17495295D01*
X160761904Y-17495295D02*
X160809523Y-17685771D01*
X160809523Y-17685771D02*
X160809523Y-17923866D01*
X160809523Y-17923866D02*
X160761904Y-18114342D01*
X160761904Y-18114342D02*
X160714285Y-18209580D01*
X160714285Y-18209580D02*
X160666666Y-18257200D01*
X160666666Y-18257200D02*
X160571428Y-18304819D01*
X160571428Y-18304819D02*
X160476190Y-18304819D01*
X160476190Y-18304819D02*
X160380952Y-18257200D01*
X160380952Y-18257200D02*
X160333333Y-18209580D01*
X160333333Y-18209580D02*
X160285714Y-18114342D01*
X160285714Y-18114342D02*
X160238095Y-17923866D01*
X160238095Y-17923866D02*
X160238095Y-17685771D01*
X160238095Y-17685771D02*
X160285714Y-17495295D01*
X160285714Y-17495295D02*
X160333333Y-17400057D01*
X160333333Y-17400057D02*
X160380952Y-17352438D01*
X160380952Y-17352438D02*
X160476190Y-17304819D01*
X161428571Y-17304819D02*
X161523809Y-17304819D01*
X161523809Y-17304819D02*
X161619047Y-17352438D01*
X161619047Y-17352438D02*
X161666666Y-17400057D01*
X161666666Y-17400057D02*
X161714285Y-17495295D01*
X161714285Y-17495295D02*
X161761904Y-17685771D01*
X161761904Y-17685771D02*
X161761904Y-17923866D01*
X161761904Y-17923866D02*
X161714285Y-18114342D01*
X161714285Y-18114342D02*
X161666666Y-18209580D01*
X161666666Y-18209580D02*
X161619047Y-18257200D01*
X161619047Y-18257200D02*
X161523809Y-18304819D01*
X161523809Y-18304819D02*
X161428571Y-18304819D01*
X161428571Y-18304819D02*
X161333333Y-18257200D01*
X161333333Y-18257200D02*
X161285714Y-18209580D01*
X161285714Y-18209580D02*
X161238095Y-18114342D01*
X161238095Y-18114342D02*
X161190476Y-17923866D01*
X161190476Y-17923866D02*
X161190476Y-17685771D01*
X161190476Y-17685771D02*
X161238095Y-17495295D01*
X161238095Y-17495295D02*
X161285714Y-17400057D01*
X161285714Y-17400057D02*
X161333333Y-17352438D01*
X161333333Y-17352438D02*
X161428571Y-17304819D01*
X162380952Y-17304819D02*
X162476190Y-17304819D01*
X162476190Y-17304819D02*
X162571428Y-17352438D01*
X162571428Y-17352438D02*
X162619047Y-17400057D01*
X162619047Y-17400057D02*
X162666666Y-17495295D01*
X162666666Y-17495295D02*
X162714285Y-17685771D01*
X162714285Y-17685771D02*
X162714285Y-17923866D01*
X162714285Y-17923866D02*
X162666666Y-18114342D01*
X162666666Y-18114342D02*
X162619047Y-18209580D01*
X162619047Y-18209580D02*
X162571428Y-18257200D01*
X162571428Y-18257200D02*
X162476190Y-18304819D01*
X162476190Y-18304819D02*
X162380952Y-18304819D01*
X162380952Y-18304819D02*
X162285714Y-18257200D01*
X162285714Y-18257200D02*
X162238095Y-18209580D01*
X162238095Y-18209580D02*
X162190476Y-18114342D01*
X162190476Y-18114342D02*
X162142857Y-17923866D01*
X162142857Y-17923866D02*
X162142857Y-17685771D01*
X162142857Y-17685771D02*
X162190476Y-17495295D01*
X162190476Y-17495295D02*
X162238095Y-17400057D01*
X162238095Y-17400057D02*
X162285714Y-17352438D01*
X162285714Y-17352438D02*
X162380952Y-17304819D01*
X163904762Y-18304819D02*
X163904762Y-17638152D01*
X163904762Y-17733390D02*
X163952381Y-17685771D01*
X163952381Y-17685771D02*
X164047619Y-17638152D01*
X164047619Y-17638152D02*
X164190476Y-17638152D01*
X164190476Y-17638152D02*
X164285714Y-17685771D01*
X164285714Y-17685771D02*
X164333333Y-17781009D01*
X164333333Y-17781009D02*
X164333333Y-18304819D01*
X164333333Y-17781009D02*
X164380952Y-17685771D01*
X164380952Y-17685771D02*
X164476190Y-17638152D01*
X164476190Y-17638152D02*
X164619047Y-17638152D01*
X164619047Y-17638152D02*
X164714286Y-17685771D01*
X164714286Y-17685771D02*
X164761905Y-17781009D01*
X164761905Y-17781009D02*
X164761905Y-18304819D01*
X165238095Y-18304819D02*
X165238095Y-17638152D01*
X165238095Y-17733390D02*
X165285714Y-17685771D01*
X165285714Y-17685771D02*
X165380952Y-17638152D01*
X165380952Y-17638152D02*
X165523809Y-17638152D01*
X165523809Y-17638152D02*
X165619047Y-17685771D01*
X165619047Y-17685771D02*
X165666666Y-17781009D01*
X165666666Y-17781009D02*
X165666666Y-18304819D01*
X165666666Y-17781009D02*
X165714285Y-17685771D01*
X165714285Y-17685771D02*
X165809523Y-17638152D01*
X165809523Y-17638152D02*
X165952380Y-17638152D01*
X165952380Y-17638152D02*
X166047619Y-17685771D01*
X166047619Y-17685771D02*
X166095238Y-17781009D01*
X166095238Y-17781009D02*
X166095238Y-18304819D01*
D11*
X163000000Y-24500000D02*
X163000000Y-18413580D01*
X161000000Y-24500000D02*
X161000000Y-18413580D01*
X163000000Y-19000000D02*
X161000000Y-19000000D01*
X163000000Y-19000000D02*
X161000000Y-19000000D01*
X163000000Y-19000000D02*
X161873496Y-19586421D01*
X163000000Y-19000000D02*
X161873496Y-18413579D01*
X161000000Y-19000000D02*
X162126504Y-18413579D01*
X161000000Y-19000000D02*
X162126504Y-19586421D01*
D10*
%TO.C,GNDSCREW1*%
X164200000Y-25000000D02*
G75*
G03*
X164200000Y-25000000I-2200000J0D01*
G01*
%TO.C,GNDSCREW2*%
X164200000Y-81000000D02*
G75*
G03*
X164200000Y-81000000I-2200000J0D01*
G01*
%TO.C,GNDSCREW4*%
X27200000Y-81000000D02*
G75*
G03*
X27200000Y-81000000I-2200000J0D01*
G01*
%TO.C,GNDSCREW3*%
X27200000Y-25000000D02*
G75*
G03*
X27200000Y-25000000I-2200000J0D01*
G01*
%TD*%
M02*
